<?xml version="1.0" standalone="no"?>
<!DOCTYPE svg PUBLIC "-//W3C//DTD SVG 20010904//EN"
 "http://www.w3.org/TR/2001/REC-SVG-20010904/DTD/svg10.dtd">
<svg version="1.0" xmlns="http://www.w3.org/2000/svg"
 width="608.000000pt" height="525.000000pt" viewBox="0 0 608.000000 525.000000"
 preserveAspectRatio="xMidYMid meet">

<g transform="translate(0.000000,525.000000) scale(0.100000,-0.100000)"
fill="#000000" stroke="none">
<path d="M5 5239 c-4 -6 -5 -12 -2 -15 2 -3 7 2 10 11 7 17 1 20 -8 4z"/>
<path d="M6035 5180 c10 -11 20 -20 23 -20 3 0 -3 9 -13 20 -10 11 -20 20 -23
20 -3 0 3 -9 13 -20z"/>
<path d="M162 5113 c-13 -5 -7 -23 9 -23 6 0 7 5 4 10 -3 6 1 10 10 10 9 0 13
-4 10 -10 -3 -5 -1 -10 5 -10 16 0 6 25 -11 27 -8 1 -20 -1 -27 -4z"/>
<path d="M1973 5105 c0 -8 4 -12 9 -9 5 3 6 10 3 15 -9 13 -12 11 -12 -6z"/>
<path d="M2086 5112 c-2 -4 11 -6 30 -4 19 2 34 6 34 8 0 8 -59 4 -64 -4z"/>
<path d="M2270 5116 c0 -2 11 -6 25 -8 13 -3 22 -1 19 3 -5 9 -44 13 -44 5z"/>
<path d="M2590 5105 c0 -9 9 -15 23 -14 17 1 18 2 4 6 -9 2 -15 9 -12 14 4 5
1 9 -4 9 -6 0 -11 -7 -11 -15z"/>
<path d="M3275 5109 c-11 -16 -1 -19 13 -3 7 8 8 14 3 14 -5 0 -13 -5 -16 -11z"/>
<path d="M3331 5104 c0 -11 3 -14 6 -6 3 7 2 16 -1 19 -3 4 -6 -2 -5 -13z"/>
<path d="M3628 5113 c7 -3 16 -2 19 1 4 3 -2 6 -13 5 -11 0 -14 -3 -6 -6z"/>
<path d="M3994 5112 c3 -5 0 -13 -6 -15 -9 -4 -10 -6 -1 -6 17 -1 25 16 12 25
-7 4 -9 3 -5 -4z"/>
<path d="M4205 5110 c-4 -6 -4 -14 -1 -17 3 -4 6 -1 6 5 0 15 26 16 33 2 3 -6
4 -5 3 2 -3 17 -32 22 -41 8z"/>
<path d="M5698 5113 c6 -2 9 -10 6 -15 -4 -7 -2 -8 5 -4 13 9 5 26 -12 25 -9
0 -8 -2 1 -6z"/>
<path d="M1775 5100 l-40 -7 43 -2 c23 0 42 4 42 9 0 6 -1 9 -2 9 -2 -1 -21
-5 -43 -9z"/>
<path d="M2758 5098 c5 -5 16 -8 23 -6 8 3 3 7 -10 11 -17 4 -21 3 -13 -5z"/>
<path d="M4110 5096 c7 -7 13 -7 20 0 6 6 3 10 -10 10 -13 0 -16 -4 -10 -10z"/>
<path d="M4385 5100 c-3 -5 -1 -10 4 -10 6 0 11 5 11 10 0 6 -2 10 -4 10 -3 0
-8 -4 -11 -10z"/>
<path d="M4806 5098 c6 -10 64 -11 64 0 0 4 -16 7 -35 8 -18 0 -32 -3 -29 -8z"/>
<path d="M4977 5098 c2 -5 17 -8 34 -8 16 0 29 3 29 8 0 4 -15 7 -34 7 -19 0
-32 -3 -29 -7z"/>
<path d="M5140 5100 c0 -5 5 -10 11 -10 5 0 7 5 4 10 -3 6 -8 10 -11 10 -2 0
-4 -4 -4 -10z"/>
<path d="M5310 5098 c0 -5 13 -8 29 -8 17 0 32 3 34 8 3 4 -10 7 -29 7 -19 0
-34 -3 -34 -7z"/>
<path d="M5470 5098 c0 -5 15 -8 34 -8 19 0 37 3 39 8 3 4 -12 7 -34 7 -21 0
-39 -3 -39 -7z"/>
<path d="M5630 5099 c0 -5 9 -9 20 -9 11 0 20 2 20 4 0 2 -9 6 -20 9 -11 3
-20 1 -20 -4z"/>
<path d="M5812 5098 c5 -15 48 -18 48 -3 0 6 -11 11 -26 13 -18 3 -25 0 -22
-10z"/>
<path d="M4668 5093 c6 -2 18 -2 25 0 6 3 1 5 -13 5 -14 0 -19 -2 -12 -5z"/>
<path d="M5910 5011 c0 -12 31 -43 37 -37 7 7 -16 46 -27 46 -6 0 -10 -4 -10
-9z"/>
<path d="M5940 4886 c0 -9 7 -16 16 -16 9 0 14 5 12 12 -6 18 -28 21 -28 4z"/>
<path d="M5948 4743 c7 -3 16 -2 19 1 4 3 -2 6 -13 5 -11 0 -14 -3 -6 -6z"/>
<path d="M5360 4690 c8 -5 20 -10 25 -10 6 0 3 5 -5 10 -8 5 -19 10 -25 10 -5
0 -3 -5 5 -10z"/>
<path d="M5580 4584 c0 -2 12 -9 26 -14 15 -6 22 -14 18 -22 -5 -8 -2 -9 11
-4 18 7 18 6 0 -14 -20 -22 -30 -27 -19 -8 4 7 3 8 -4 4 -7 -4 -12 -16 -12
-27 0 -11 -4 -18 -9 -15 -5 3 -12 -16 -16 -44 -4 -28 -11 -47 -16 -44 -5 3 -9
2 -10 -3 0 -4 -2 -15 -4 -23 -2 -8 -6 -26 -9 -38 -3 -13 -13 -31 -23 -40 -10
-10 -19 -28 -21 -41 -1 -13 -10 -29 -19 -36 -11 -8 -13 -14 -5 -19 7 -4 12
-13 12 -19 0 -7 -4 -6 -10 3 -5 8 -10 11 -11 5 -1 -5 -3 -26 -6 -45 -2 -19 -6
-47 -7 -63 -2 -15 -11 -34 -22 -42 -10 -8 25 5 79 30 54 25 100 45 102 45 3 0
2 -7 -1 -15 -4 -8 -10 -12 -15 -9 -5 3 -9 -2 -9 -11 0 -10 -5 -13 -12 -9 -7 4
-4 -2 6 -14 14 -17 16 -22 5 -22 -12 0 -12 -2 0 -9 8 -5 10 -14 5 -22 -7 -11
-14 -119 -15 -216 0 -18 -4 -35 -10 -39 -6 -3 -7 -19 -4 -36 6 -23 4 -29 -5
-23 -10 6 -11 1 -7 -21 3 -16 1 -37 -4 -46 -6 -12 -6 -25 1 -38 7 -14 7 -20 0
-20 -6 0 -8 -10 -4 -25 8 -34 -14 -33 -111 6 -61 24 -80 28 -89 18 -8 -9 -7
-10 4 -5 12 6 12 5 -1 -6 -18 -15 -34 -52 -19 -43 6 3 10 1 10 -4 0 -6 -4 -11
-10 -11 -5 0 -10 -9 -10 -20 0 -11 -4 -20 -10 -20 -5 0 -10 -5 -10 -11 0 -7
-11 -22 -25 -35 -16 -15 -20 -24 -12 -27 7 -3 4 -6 -6 -6 -10 -1 -15 -5 -12
-11 3 -5 -1 -10 -9 -10 -15 0 -21 -12 -17 -33 1 -5 -8 -11 -19 -14 -11 -3 -18
-9 -15 -13 2 -4 -6 -5 -20 -3 -14 3 -28 16 -36 34 -6 16 -13 28 -15 26 -3 -2
19 -60 47 -128 153 -370 249 -622 249 -651 0 -17 -17 -18 -296 -18 -301 0
-328 -3 -316 -38 2 -7 -1 -11 -6 -10 -5 2 -24 -15 -41 -37 -17 -22 -35 -46
-41 -52 -6 -7 -7 -13 -3 -13 4 0 0 -5 -9 -11 -10 -5 -18 -19 -18 -31 0 -14 -5
-18 -15 -14 -14 5 -88 -57 -79 -67 2 -2 -15 -9 -38 -16 -37 -12 -43 -11 -55 5
-7 10 -13 14 -13 8 0 -5 -18 10 -40 34 -21 23 -45 42 -52 42 -10 0 -11 2 0 8
9 6 5 12 -13 22 -14 7 -25 19 -25 26 0 6 -6 14 -14 17 -7 3 -23 25 -35 49 -11
24 -37 62 -58 83 l-37 40 21 -35 c11 -19 69 -118 128 -219 101 -171 107 -184
89 -194 -19 -11 -108 -93 -554 -512 -216 -202 -401 -376 -771 -723 -31 -28
-60 -52 -65 -52 -5 0 -27 17 -49 38 -22 21 -175 164 -340 318 -727 681 -1000
937 -1003 945 -2 4 41 84 96 176 98 165 527 907 551 951 6 12 10 22 7 22 -2 0
-32 -48 -67 -107 -79 -137 -120 -204 -137 -223 -8 -8 -62 -98 -122 -200 -101
-174 -121 -203 -164 -240 -27 -23 -134 -194 -194 -310 -63 -121 -64 -149 -11
-226 77 -113 359 -424 383 -424 7 0 41 -32 77 -72 35 -40 71 -79 79 -88 8 -9
31 -36 50 -61 19 -24 42 -53 50 -63 8 -11 27 -32 42 -47 l27 -27 -47 -7 c-34
-5 -42 -9 -30 -16 12 -7 32 -51 29 -66 0 -2 7 -22 15 -45 10 -28 14 -70 12
-123 -3 -75 -5 -82 -36 -113 -19 -19 -29 -38 -25 -45 4 -8 1 -8 -9 1 -13 10
-18 10 -24 1 -4 -8 -3 -9 4 -5 7 4 12 2 12 -3 0 -6 -9 -11 -21 -11 -11 0 -17
-4 -14 -10 3 -5 -3 -10 -14 -10 -11 0 -26 -6 -33 -14 -8 -7 -30 -17 -49 -21
-19 -4 -45 -15 -59 -25 -28 -19 -70 -35 -84 -31 -5 1 -3 -5 4 -14 7 -9 19 -14
27 -11 8 3 12 2 8 -3 -3 -5 17 -25 44 -45 79 -58 81 -63 26 -86 -26 -11 -58
-21 -71 -22 -13 -1 -24 -5 -24 -9 0 -4 -7 -10 -16 -13 -10 -4 -13 -2 -8 7 5 9
4 9 -7 -1 -7 -6 -23 -12 -35 -12 -30 0 -55 -10 -49 -20 2 -4 -6 -6 -18 -5 -12
0 -30 -3 -41 -8 -10 -5 -36 -10 -58 -12 -21 -2 -54 -10 -73 -19 -25 -12 -40
-14 -60 -6 -14 5 -23 14 -20 20 3 5 1 10 -4 10 -6 0 -11 -2 -11 -4 0 -7 109
-296 125 -333 8 -18 20 -33 27 -33 15 1 73 14 104 24 15 4 21 2 21 -8 0 -9 -4
-13 -8 -10 -4 2 -9 0 -11 -5 -1 -6 -32 -13 -68 -17 l-66 -6 -22 48 c-19 43
-141 351 -249 632 -20 51 -38 90 -41 87 -3 -3 -5 -23 -4 -44 3 -37 -2 -45 -40
-77 -23 -18 -149 -84 -143 -74 9 15 2 12 -33 -14 -18 -13 -43 -22 -57 -20 -14
1 -25 -2 -25 -7 0 -4 -7 -5 -17 -2 -11 4 -14 3 -9 -5 4 -7 -3 -14 -19 -18 -13
-3 -22 -10 -19 -15 3 -5 0 -9 -5 -9 -6 0 -11 5 -11 11 0 6 -6 9 -12 6 -7 -2
-12 -9 -11 -14 2 -11 -26 -11 -44 0 -6 4 -15 2 -19 -4 -5 -8 -3 -9 7 -4 12 8
12 6 0 -9 -8 -9 -17 -13 -20 -8 -3 5 -17 9 -31 8 -32 -3 -66 14 -279 137 -176
102 -211 132 -211 185 0 12 -4 22 -9 22 -9 0 -18 20 -25 57 -2 10 -11 38 -20
63 -9 25 -19 70 -22 100 -3 30 -7 56 -8 57 -1 2 -22 -54 -47 -123 -36 -103
-45 -121 -53 -104 -10 22 -43 23 -38 0 3 -11 0 -11 -12 0 -19 15 -21 24 -4 14
7 -4 8 -3 4 5 -4 6 -11 9 -16 6 -5 -3 -22 2 -37 11 -15 10 -23 12 -17 6 13
-15 2 -84 -34 -202 -24 -81 -26 -98 -29 -362 -3 -215 -1 -278 9 -278 9 0 9 -3
0 -12 -7 -7 -12 -29 -12 -50 l0 -38 840 0 c486 0 840 4 840 9 0 5 7 11 14 14
10 4 13 1 9 -9 -4 -12 175 -14 1381 -14 l1386 0 0 25 c0 24 -3 25 -55 25 -30
0 -55 4 -55 9 0 5 23 7 53 4 l52 -5 69 183 c79 214 174 458 292 756 46 117 84
215 84 219 0 9 67 193 200 549 61 165 148 399 192 520 44 121 89 236 100 255
18 30 191 479 338 875 26 72 80 210 119 309 39 98 71 188 71 200 0 12 12 38
26 57 15 19 48 80 75 136 48 100 49 104 49 198 l0 95 -42 0 c-72 1 -119 16
-274 92 -173 84 -184 89 -184 82z m385 -230 c0 -28 -4 -39 -15 -39 -15 0 -24
45 -14 73 9 28 29 4 29 -34z m5 -129 c0 -38 -3 -45 -20 -45 -17 0 -20 7 -20
38 0 41 6 52 27 52 9 0 13 -14 13 -45z m-2 -147 c-2 -30 -8 -43 -18 -43 -10 0
-16 13 -18 43 -3 37 -1 42 18 42 19 0 21 -5 18 -42z m-2054 -2666 c3 -5 -1 -9
-9 -9 -8 0 -12 4 -9 9 3 4 7 8 9 8 2 0 6 -4 9 -8z m-123 -146 c-23 -13 -23
-14 -5 -19 10 -2 1 -5 -21 -5 -31 0 -35 1 -20 8 11 5 16 9 12 9 -21 2 8 21 31
21 l27 -1 -24 -13z m67 -43 c-43 -2 -113 -2 -155 0 -43 1 -8 3 77 3 85 0 120
-2 78 -3z m-1153 -1016 c121 -50 257 -103 303 -119 l83 -28 62 24 c34 13 121
48 192 79 72 30 176 74 233 97 l103 41 249 -83 c137 -45 247 -84 245 -86 -4
-5 -166 45 -328 100 -90 30 -127 39 -155 34 -20 -3 -44 -7 -52 -8 -8 -1 -111
-40 -227 -88 -162 -66 -210 -89 -201 -98 19 -19 4 -23 -81 -23 -66 0 -81 -3
-81 -15 0 -9 -7 -14 -16 -12 -8 2 -15 7 -14 11 1 13 -61 52 -111 70 -24 8
-100 38 -168 67 -68 28 -126 49 -128 46 -3 -3 6 -8 20 -12 15 -3 29 -15 33
-26 3 -11 12 -17 20 -14 8 3 14 1 14 -5 0 -7 -12 -8 -30 -4 -18 4 -36 2 -44
-4 -20 -17 -47 -21 -190 -26 -71 -3 -135 -10 -142 -16 -8 -6 -14 -6 -18 0 -4
5 -20 8 -36 6 -17 -2 -30 -1 -30 4 0 8 -172 5 -242 -5 -27 -4 -48 -9 -48 -13
0 -3 -17 -7 -38 -8 -24 -1 25 20 143 61 99 35 234 84 300 108 66 25 129 43
140 41 11 -3 119 -46 240 -96z m-2510 -122 c0 -5 -17 -11 -37 -13 -30 -3 -38
0 -38 13 0 13 8 16 38 13 20 -2 37 -7 37 -13z m175 0 c0 -11 -11 -15 -40 -15
-38 0 -49 8 -33 23 3 4 21 7 40 7 23 0 33 -5 33 -15z m178 -2 c2 -9 -9 -13
-37 -13 -39 0 -50 8 -34 24 11 11 66 2 71 -11z m180 2 c11 -11 -12 -23 -43
-23 -33 0 -45 14 -28 31 6 6 63 0 71 -8z m172 -11 c0 -9 -12 -14 -34 -14 -36
0 -57 17 -37 29 18 12 71 0 71 -15z m180 4 c0 -8 -14 -13 -35 -13 -22 -1 -35
4 -35 12 0 8 13 13 35 13 21 0 35 -5 35 -12z m190 -3 c0 -16 -28 -19 -67 -9
-38 10 -26 24 22 24 33 0 45 -4 45 -15z m180 0 c0 -11 -12 -15 -45 -15 -42 0
-54 7 -38 23 3 4 24 7 45 7 27 0 38 -4 38 -15z m537 2 c14 -15 -16 -28 -53
-25 -25 2 -40 8 -42 18 -2 12 8 15 43 14 25 0 48 -4 52 -7z m183 -7 c0 -17 -7
-20 -45 -20 -31 0 -45 4 -45 13 0 21 11 27 52 27 31 0 38 -3 38 -20z m178 -2
c3 -15 -4 -18 -42 -18 -32 0 -46 4 -46 13 0 22 12 28 50 25 24 -2 36 -9 38
-20z m187 2 c0 -10 -12 -16 -33 -18 -47 -5 -68 4 -53 22 16 19 86 16 86 -4z
m161 10 c15 0 24 -6 24 -15 0 -11 -11 -15 -43 -15 -24 0 -47 3 -50 7 -11 10
15 34 30 28 8 -3 26 -5 39 -5z m701 -14 c-2 -6 -22 -12 -45 -14 -32 -2 -42 0
-42 12 0 9 12 16 33 18 40 4 59 -1 54 -16z m183 4 c0 -17 -7 -20 -45 -20 -58
0 -64 27 -7 33 20 2 40 4 45 5 4 1 7 -7 7 -18z m190 -6 c0 -10 -12 -14 -45
-14 -32 0 -45 4 -45 14 0 10 13 16 38 18 44 4 52 1 52 -18z m554 2 c-8 -22
-94 -23 -94 -2 0 11 14 16 48 18 57 4 54 5 46 -16z m-2684 -1 c0 -11 -12 -15
-50 -15 -46 0 -60 7 -43 23 3 4 26 7 50 7 32 0 43 -4 43 -15z m1260 0 c0 -11
-12 -15 -45 -15 -33 0 -45 4 -45 15 0 11 12 15 45 15 33 0 45 -4 45 -15z
m1050 0 c0 -11 -11 -15 -39 -15 -38 0 -57 10 -44 24 3 3 24 6 45 6 27 0 38 -4
38 -15z m190 0 c0 -11 -12 -15 -45 -15 -33 0 -45 4 -45 15 0 11 12 15 45 15
33 0 45 -4 45 -15z"/>
<path d="M6052 4440 c0 -14 2 -19 5 -12 2 6 2 18 0 25 -3 6 -5 1 -5 -13z"/>
<path d="M3021 3774 c-14 -55 -89 -297 -275 -884 -74 -234 -133 -426 -131
-428 2 -2 11 21 20 50 10 29 24 64 31 78 7 14 20 50 30 80 27 89 117 315 127
319 5 2 17 11 27 21 25 25 61 19 95 -16 71 -75 114 -228 134 -474 10 -115 4
-306 -10 -358 -7 -23 -9 -45 -6 -49 4 -3 0 -18 -9 -34 -8 -16 -11 -29 -8 -29
4 0 -4 -10 -17 -22 -32 -31 -50 -71 -38 -89 5 -8 9 -19 9 -25 0 -14 -39 -26
-54 -16 -12 7 -36 12 -36 7 0 -2 28 -24 62 -49 l61 -46 31 23 c17 13 135 97
261 187 127 90 234 166 238 170 4 4 -75 259 -177 566 -101 307 -221 671 -266
809 -44 137 -82 251 -84 253 -2 1 -9 -18 -15 -44z"/>
<path d="M2480 3620 c-6 -11 -8 -20 -6 -20 3 0 10 9 16 20 6 11 8 20 6 20 -3
0 -10 -9 -16 -20z"/>
<path d="M2447 3563 c-2 -5 -17 -30 -32 -58 -16 -27 -24 -45 -18 -40 14 14 66
105 60 105 -3 0 -8 -3 -10 -7z"/>
<path d="M5030 3515 c0 -5 5 -17 10 -25 5 -8 10 -10 10 -5 0 6 -5 17 -10 25
-5 8 -10 11 -10 5z"/>
<path d="M2357 3408 c-35 -61 -51 -95 -40 -83 14 14 76 125 70 125 -3 0 -16
-19 -30 -42z"/>
<path d="M5060 3445 c0 -5 5 -17 10 -25 5 -8 10 -10 10 -5 0 6 -5 17 -10 25
-5 8 -10 11 -10 5z"/>
<path d="M5080 3395 c0 -5 5 -17 10 -25 5 -8 10 -10 10 -5 0 6 -5 17 -10 25
-5 8 -10 11 -10 5z"/>
<path d="M6051 3004 c0 -11 3 -14 6 -6 3 7 2 16 -1 19 -3 4 -6 -2 -5 -13z"/>
<path d="M6052 2748 c-1 -84 -6 -138 -12 -138 -5 0 -10 8 -10 17 0 14 -3 13
-16 -5 -8 -12 -20 -22 -26 -22 -7 0 -6 6 2 15 10 12 10 15 -4 15 -11 0 -16 -9
-16 -26 0 -16 4 -23 12 -18 7 4 8 3 4 -4 -4 -7 -19 -13 -34 -13 -24 -2 -24 -2
-4 -6 29 -6 28 -21 -1 -28 -19 -5 -23 -13 -24 -48 -1 -41 -1 -42 6 -7 9 54 35
46 39 -12 3 -44 2 -47 -25 -51 l-28 -4 27 -2 c19 -1 26 -5 22 -15 -3 -8 -11
-13 -18 -10 -23 9 -35 -21 -33 -83 1 -34 5 -59 10 -56 15 9 6 -7 -15 -28 -13
-12 -17 -19 -10 -15 6 4 12 2 12 -3 0 -6 -4 -11 -9 -11 -5 0 -8 -20 -6 -45 1
-25 -1 -45 -6 -45 -4 0 -8 -37 -8 -81 0 -45 -5 -87 -10 -93 -5 -6 -11 -36 -12
-66 -3 -50 -5 -56 -28 -61 -15 -4 9 -7 54 -8 l81 -1 -6 -50 c-3 -28 -9 -51
-15 -50 -13 0 -19 71 -7 79 6 3 -56 4 -136 3 -96 -3 -150 -8 -154 -15 -6 -9
-8 -9 -8 1 0 6 -159 -108 -353 -254 l-353 -265 -114 -302 c-62 -166 -164 -434
-227 -596 -108 -279 -113 -295 -98 -317 l15 -24 758 0 758 0 27 28 27 28 0
845 c0 662 -3 848 -12 858 -10 11 -10 14 0 18 9 4 12 69 10 286 -1 155 -4 264
-7 242 -3 -22 -8 100 -11 270 -3 171 -6 248 -8 173z m-84 -431 c-2 -29 -8 -42
-18 -42 -11 0 -15 13 -16 52 -1 49 0 52 18 42 15 -8 18 -19 16 -52z m-3 -152
c0 -29 -4 -40 -15 -40 -11 0 -16 13 -18 43 -3 38 -1 43 15 40 14 -2 18 -13 18
-43z m5 -146 c0 -32 -3 -39 -20 -39 -17 0 -20 7 -20 38 0 43 6 53 26 45 9 -3
14 -20 14 -44z m-5 -144 c0 -30 -4 -41 -17 -43 -15 -3 -18 4 -18 43 0 39 3 46
18 43 13 -2 17 -13 17 -43z m0 -301 c0 -29 -4 -40 -17 -42 -15 -3 -18 4 -18
36 0 21 3 42 7 46 15 15 28 -3 28 -40z m5 -125 c0 -6 -5 -20 -11 -31 -8 -16
-8 -19 1 -13 8 5 11 3 8 -6 -3 -8 -11 -15 -19 -17 -11 -2 -16 8 -17 38 -2 34
0 40 18 40 11 0 20 -5 20 -11z m-5 -179 c0 -51 -29 -48 -33 3 -3 33 -1 38 15
35 13 -2 18 -12 18 -38z m0 -150 c0 -25 -5 -36 -17 -38 -15 -3 -18 4 -18 38 0
34 3 41 18 38 12 -2 17 -13 17 -38z m-12 -137 c-5 -11 -3 -14 6 -9 9 6 12 2 9
-15 -1 -12 -8 -24 -15 -26 -14 -5 -28 40 -18 56 10 17 25 13 18 -6z m11 -122
c9 -14 -4 -41 -20 -41 -8 0 -14 8 -14 18 0 29 22 43 34 23z m-9 -69 c-3 -3
-11 0 -18 7 -9 10 -8 11 6 5 10 -3 15 -9 12 -12z m5 -128 c0 -32 -1 -34 -16
-20 -9 10 -13 24 -9 36 10 32 25 23 25 -16z m10 -118 c0 -2 -9 -6 -20 -9 -11
-3 -20 -1 -20 4 0 5 9 9 20 9 11 0 20 -2 20 -4z m-10 -66 c0 -11 -4 -20 -9
-20 -5 0 -7 9 -4 20 3 11 7 20 9 20 2 0 4 -9 4 -20z m0 -140 c0 -5 -2 -10 -4
-10 -3 0 -8 5 -11 10 -3 6 -1 10 4 10 6 0 11 -4 11 -10z m0 -78 c0 -5 -7 -9
-15 -9 -8 0 -12 4 -9 9 3 4 9 8 15 8 5 0 9 -4 9 -8z m-83 -158 c-3 -3 -12 -4
-19 -1 -8 3 -5 6 6 6 11 1 17 -2 13 -5z m-1237 -28 c0 -9 -14 -15 -41 -18 -46
-4 -62 8 -27 21 35 15 68 13 68 -3z m180 -1 c0 -11 -11 -15 -40 -15 -29 0 -40
4 -40 15 0 11 11 15 40 15 29 0 40 -4 40 -15z m180 0 c0 -11 -11 -15 -40 -15
-29 0 -40 4 -40 15 0 11 11 15 40 15 29 0 40 -4 40 -15z m180 0 c0 -11 -11
-15 -40 -15 -29 0 -40 4 -40 15 0 11 11 15 40 15 29 0 40 -4 40 -15z m180 0
c0 -11 -11 -15 -40 -15 -29 0 -40 4 -40 15 0 11 11 15 40 15 29 0 40 -4 40
-15z m172 8 c-6 -2 -10 -9 -6 -14 3 -5 -11 -9 -30 -9 -25 0 -36 4 -36 15 0 11
11 15 43 14 23 0 36 -3 29 -6z m165 0 c-9 -2 -15 -8 -13 -12 3 -4 -6 -8 -20
-9 -15 -1 -24 3 -24 13 0 11 10 15 38 14 20 -1 29 -3 19 -6z m144 -11 c-7 -2
-18 1 -23 6 -8 8 -4 9 13 5 13 -4 18 -8 10 -11z"/>
<path d="M5921 2784 c0 -11 3 -14 6 -6 3 7 2 16 -1 19 -3 4 -6 -2 -5 -13z"/>
<path d="M5932 2668 c-7 -7 -11 -23 -11 -37 l2 -26 4 25 c3 14 10 31 15 38 13
15 6 16 -10 0z"/>
<path d="M5960 2666 c0 -2 8 -10 18 -17 15 -13 16 -12 3 4 -13 16 -21 21 -21
13z"/>
<path d="M5361 2382 c-29 -81 -134 -362 -232 -626 -99 -263 -178 -480 -176
-482 4 -4 671 496 675 506 2 5 -5 40 -16 77 -60 209 -194 668 -195 670 -1 1
-26 -65 -56 -145z"/>
<path d="M2586 2394 c-10 -31 -15 -58 -13 -61 3 -2 13 21 22 52 21 74 14 82
-9 9z"/>
<path d="M4640 2369 c0 -5 5 -7 10 -4 6 3 10 8 10 11 0 2 -4 4 -10 4 -5 0 -10
-5 -10 -11z"/>
<path d="M757 2346 c-4 -9 -3 -16 2 -16 5 0 11 -10 14 -22 4 -12 9 -20 12 -17
3 3 -1 21 -8 39 -11 24 -16 28 -20 16z"/>
<path d="M2545 2268 c-10 -29 -20 -58 -22 -64 -2 -7 10 -22 28 -34 l32 -23
-18 27 c-16 24 -17 33 -5 82 17 71 7 80 -15 12z"/>
<path d="M790 2275 c0 -5 5 -17 10 -25 5 -8 10 -10 10 -5 0 6 -5 17 -10 25 -5
8 -10 11 -10 5z"/>
<path d="M810 2225 c0 -5 5 -17 10 -25 5 -8 10 -10 10 -5 0 6 -5 17 -10 25 -5
8 -10 11 -10 5z"/>
<path d="M592 2111 c-25 -91 -25 -91 -12 -91 6 0 10 6 9 13 -3 26 1 48 9 43 5
-3 8 7 9 22 0 15 3 42 7 60 15 63 -1 31 -22 -47z"/>
<path d="M834 2154 c2 -17 10 -44 18 -60 9 -16 13 -35 10 -43 -3 -9 0 -11 8
-6 10 6 12 4 7 -8 -4 -10 -2 -17 5 -17 7 0 7 -4 0 -13 -7 -8 -6 -18 4 -32 8
-10 12 -28 8 -39 -4 -15 -3 -17 4 -7 7 10 11 5 14 -17 2 -17 1 -29 -3 -26 -29
18 -53 -38 -27 -64 7 -7 8 -12 2 -12 -14 0 -37 -58 -28 -71 5 -9 2 -10 -9 -6
-13 5 -17 1 -17 -16 0 -12 -5 -29 -10 -37 -9 -13 -11 -13 -20 0 -9 13 -12 13
-23 0 -6 -8 -27 -15 -46 -15 -24 0 -35 -5 -37 -17 -1 -10 1 -17 4 -17 22 3 32
-2 26 -13 -5 -8 0 -7 11 2 10 8 16 10 12 4 -3 -6 1 -20 9 -30 9 -10 13 -12 9
-4 -3 8 8 -1 26 -20 17 -19 28 -28 24 -20 -4 8 3 4 15 -10 12 -14 19 -18 15
-10 -4 8 3 3 15 -13 12 -15 26 -25 31 -21 5 3 9 1 9 -4 0 -8 143 -120 281
-219 11 -9 -1 32 -38 125 -30 75 -81 205 -113 287 -130 331 -200 498 -196 469z
m-109 -512 c-3 -3 -11 0 -18 7 -9 10 -8 11 6 5 10 -3 15 -9 12 -12z"/>
<path d="M2590 2146 c0 -2 8 -10 18 -17 15 -13 16 -12 3 4 -13 16 -21 21 -21
13z"/>
<path d="M2630 2116 c0 -2 8 -10 18 -17 15 -13 16 -12 3 4 -13 16 -21 21 -21
13z"/>
<path d="M2670 2086 c0 -2 8 -10 18 -17 15 -13 16 -12 3 4 -13 16 -21 21 -21
13z"/>
<path d="M2710 2056 c0 -2 8 -10 18 -17 15 -13 16 -12 3 4 -13 16 -21 21 -21
13z"/>
<path d="M2750 2026 c0 -2 8 -10 18 -17 15 -13 16 -12 3 4 -13 16 -21 21 -21
13z"/>
<path d="M532 1896 c-19 -65 -31 -120 -28 -124 3 -3 6 -2 6 2 0 5 9 -2 21 -15
11 -13 17 -17 13 -9 -7 13 -6 13 12 0 10 -8 29 -26 41 -40 11 -14 26 -26 32
-26 6 -1 16 -2 22 -3 5 0 8 -5 5 -10 -7 -11 20 -8 31 3 4 4 4 6 -2 5 -5 -2
-21 3 -34 10 -18 10 -21 15 -10 21 11 7 10 12 -4 28 -9 10 -17 23 -17 29 0 6
-6 14 -12 16 -10 4 -10 6 0 6 14 1 6 52 -10 62 -5 3 -11 15 -12 25 -2 10 -8
18 -13 17 -9 -2 -11 46 -2 62 3 6 3 21 0 34 -5 19 -15 -4 -39 -93z m98 -181
c-5 -7 -6 -16 -2 -21 4 -4 -1 -2 -10 5 -20 15 -17 28 6 28 11 0 13 -4 6 -12z"/>
<path d="M2790 1996 c0 -2 8 -10 18 -17 15 -13 16 -12 3 4 -13 16 -21 21 -21
13z"/>
<path d="M2830 1966 c0 -2 8 -10 18 -17 15 -13 16 -12 3 4 -13 16 -21 21 -21
13z"/>
<path d="M2870 1936 c0 -2 8 -10 18 -17 15 -13 16 -12 3 4 -13 16 -21 21 -21
13z"/>
<path d="M3659 1643 c-13 -16 -12 -17 4 -4 16 13 21 21 13 21 -2 0 -10 -8 -17
-17z"/>
<path d="M2910 1485 l124 -125 24 23 c13 12 64 68 114 125 l89 102 -238 0
-238 0 125 -125z"/>
<path d="M3545 1538 l-40 -43 43 40 c39 36 47 45 39 45 -2 0 -21 -19 -42 -42z"/>
<path d="M3455 1462 c-129 -119 -235 -206 -329 -272 -12 -8 -38 -27 -59 -43
l-37 -29 -45 37 c-25 20 -45 33 -45 30 0 -4 -9 3 -21 16 l-21 24 21 -31 c11
-17 17 -34 13 -38 -4 -4 -2 -6 4 -4 6 1 31 -19 56 -46 l46 -49 194 183 c241
228 274 260 268 260 -3 0 -23 -17 -45 -38z"/>
</g>
</svg>
