<?xml version="1.0" standalone="no"?>
<!DOCTYPE svg PUBLIC "-//W3C//DTD SVG 20010904//EN"
 "http://www.w3.org/TR/2001/REC-SVG-20010904/DTD/svg10.dtd">
<svg version="1.0" xmlns="http://www.w3.org/2000/svg"
 width="727.000000pt" height="436.000000pt" viewBox="0 0 727.000000 436.000000"
 preserveAspectRatio="xMidYMid meet">

<g transform="translate(0.000000,436.000000) scale(0.100000,-0.100000)"
fill="#000000" stroke="none">
<path d="M0 2180 l0 -2180 3635 0 3635 0 0 2180 0 2180 -3635 0 -3635 0 0
-2180z m3756 1855 c-20 -55 -66 -179 -103 -275 l-68 -175 -43 -3 c-52 -4 -51
-2 -132 -193 l-62 -147 -43 -5 c-24 -2 -55 -2 -69 0 -46 9 -27 22 36 25 l63 3
42 100 c34 79 42 108 38 138 -5 37 10 53 18 20 4 -17 19 9 40 70 6 15 14 17
51 12 l44 -7 30 79 c16 43 65 170 108 283 79 207 114 260 50 75z m-3196 80
c18 -21 5 -47 -22 -43 -26 3 -37 36 -16 49 18 12 24 11 38 -6z m468 -2 c13
-26 4 -43 -24 -43 -39 0 -32 55 8 59 4 1 11 -7 16 -16z m260 -17 c-2 -11 -10
-22 -19 -24 -21 -4 -33 26 -18 44 15 18 41 5 37 -20z m442 19 c17 -20 5 -45
-20 -45 -11 0 -23 7 -26 15 -6 15 11 45 26 45 4 0 13 -7 20 -15z m868 -2 c13
-26 4 -43 -24 -43 -39 0 -32 55 8 59 4 1 11 -7 16 -16z m1380 -6 c2 -12 -1
-15 -12 -11 -10 4 -14 0 -11 -13 1 -10 8 -17 14 -15 6 1 11 -2 11 -6 0 -30
-44 -15 -53 18 -6 22 18 53 37 47 6 -2 12 -11 14 -20z m207 -8 c0 -17 -6 -25
-22 -27 -17 -3 -23 2 -23 15 0 22 20 45 35 40 5 -2 10 -15 10 -28z m185 -20
c0 -21 -4 -39 -10 -39 -5 0 -10 21 -10 46 0 27 4 43 10 39 6 -3 10 -24 10 -46z
m139 37 c15 -18 3 -46 -20 -46 -22 0 -34 22 -25 45 7 19 30 19 45 1z m509 5
c20 -12 10 -46 -14 -49 -25 -4 -40 24 -23 44 13 16 19 17 37 5z m932 -197 c0
-134 -3 -203 -10 -199 -6 4 -10 81 -10 199 0 169 3 206 17 206 2 0 3 -93 3
-206z m698 172 c-2 -13 -12 -22 -26 -24 -29 -4 -42 26 -18 44 24 17 48 6 44
-20z m-4300 -18 c-12 -55 -183 -526 -216 -596 -45 -95 -34 -48 26 114 33 88
88 241 123 341 62 176 87 230 67 141z m672 2 c0 -22 -4 -40 -10 -40 -5 0 -10
18 -10 40 0 22 5 40 10 40 6 0 10 -18 10 -40z m555 15 c0 -13 -8 -21 -22 -23
-19 -3 -23 1 -23 23 0 22 4 26 23 23 14 -2 22 -10 22 -23z m2165 5 c0 -24 -26
-38 -42 -22 -16 16 -2 42 22 42 13 0 20 -7 20 -20z m-2608 -22 c-8 -8 -9 -4
-5 13 4 13 8 18 11 10 2 -7 -1 -18 -6 -23z m-1222 -168 c0 -177 -4 -215 -21
-204 -10 6 -13 377 -3 387 19 19 24 -20 24 -183z m2230 125 c14 -19 14 -19 -2
-6 -10 7 -18 18 -18 24 0 6 1 8 3 6 1 -2 9 -13 17 -24z m-154 -81 c8 -31 -6
-47 -37 -42 -43 6 -38 68 5 68 19 0 27 -7 32 -26z m770 -30 c-8 -29 -26 -22
-26 10 0 29 23 55 28 31 2 -9 1 -28 -2 -41z m-1736 -59 c0 -99 -7 -136 -21
-114 -4 7 -5 51 -2 97 l6 84 -303 -4 -304 -4 -37 -93 c-20 -51 -40 -95 -44
-99 -13 -11 4 45 38 132 l32 81 61 1 c34 1 66 4 72 8 6 3 39 2 74 -3 83 -11
402 -4 406 9 2 6 8 8 13 4 5 -3 9 -47 9 -99z m1485 75 c11 -4 -32 -9 -100 -12
-66 -3 -122 -4 -124 -2 -2 2 2 11 9 19 11 14 28 15 104 9 50 -4 100 -10 111
-14z m-3765 0 c17 -5 -1 -8 -58 -9 -53 -1 -81 3 -77 9 7 12 99 12 135 0z m950
0 c0 -5 -153 -10 -339 -12 -311 -3 -341 -5 -359 -21 -19 -18 -20 -18 -18 0 1
16 -9 18 -86 21 -49 1 -88 7 -88 12 0 5 183 9 445 9 245 -1 445 -5 445 -9z
m50 1 c0 -6 -4 -13 -10 -16 -5 -3 -10 -1 -10 5 0 6 -4 8 -10 5 -5 -3 -10 -1
-10 4 0 6 9 11 20 11 11 0 20 -4 20 -9z m1820 -1 c10 -7 -34 -9 -145 -9 -177
1 -166 13 15 17 65 1 121 -2 130 -8z m220 -6 c0 -2 -12 -4 -26 -4 -14 0 -23 4
-20 9 6 8 46 4 46 -5z m447 2 c3 -3 -5 -6 -19 -6 -71 0 -84 -9 -97 -63 -6 -29
-23 -69 -38 -89 -22 -33 -87 -181 -154 -356 -12 -29 -23 -51 -26 -49 -2 3 7
34 21 69 14 36 26 79 26 97 0 18 4 30 8 27 5 -3 17 18 27 47 10 29 28 73 41
99 13 27 19 50 13 53 -5 4 -9 13 -9 22 0 11 7 14 24 11 22 -5 26 0 40 56 8 33
13 64 10 68 -3 4 -17 9 -32 10 -15 0 -5 4 23 8 56 8 132 6 142 -4z m1063 4
c10 -7 -26 -9 -110 -9 -78 1 -116 4 -100 9 36 11 192 11 210 0z m-3192 -7
c-10 -2 -28 -2 -40 0 -13 2 -5 4 17 4 22 1 32 -1 23 -4z m90 -3 c-18 -11 -68
-10 -68 2 0 4 19 8 43 8 32 -1 38 -3 25 -10z m3250 3 c-21 -2 -55 -2 -75 0
-21 2 -4 4 37 4 41 0 58 -2 38 -4z m-1477 -102 c-5 -33 -15 -69 -21 -78 -10
-16 -11 -16 -6 2 3 11 8 38 11 60 10 65 16 88 21 82 3 -2 0 -32 -5 -66z m414
13 c0 -10 -8 -20 -17 -22 -18 -3 -26 27 -11 42 12 11 28 0 28 -20z m-2690 -70
c-25 -38 -31 -20 -9 28 16 36 19 39 22 20 2 -13 -4 -35 -13 -48z m4045 16 c23
-23 16 -52 -13 -48 -14 2 -20 12 -22 36 -3 37 7 40 35 12z m-5170 -5 c17 -20
5 -45 -20 -45 -23 0 -35 22 -26 45 7 19 30 19 46 0z m468 -19 c3 -24 0 -27
-20 -24 -26 3 -37 36 -16 49 20 13 33 5 36 -25z m260 1 c3 -22 -1 -27 -18 -27
-23 0 -35 22 -26 46 10 25 41 12 44 -19z m800 5 c4 -28 -24 -40 -45 -19 -14
13 -14 19 -3 32 18 22 44 15 48 -13z m510 -6 c3 -24 0 -27 -20 -24 -26 3 -37
36 -16 49 20 13 33 5 36 -25z m1627 25 c3 -5 -6 -22 -19 -38 -30 -35 -53 -22
-37 20 10 27 44 37 56 18z m284 -5 c15 -18 3 -46 -20 -46 -22 0 -34 22 -25 45
7 19 30 19 45 1z m241 -26 c0 -22 -4 -40 -10 -40 -5 0 -10 18 -10 40 0 22 5
40 10 40 6 0 10 -18 10 -40z m264 34 c19 -7 21 -35 4 -52 -7 -7 -17 -8 -30 -1
-21 11 -23 30 -6 47 14 14 12 14 32 6z m1620 0 c20 -8 21 -38 0 -54 -12 -11
-18 -11 -30 2 -13 12 -14 20 -5 37 13 23 13 23 35 15z m196 -29 c0 -13 -6 -25
-12 -28 -22 -7 -38 4 -38 28 0 13 6 25 13 28 21 7 37 -4 37 -28z m-6072 -1 c7
4 12 1 12 -8 0 -21 -18 -30 -34 -17 -7 6 -16 8 -19 4 -9 -8 -9 10 -1 31 6 15
7 15 19 0 6 -9 17 -14 23 -10z m3612 11 c0 -8 -4 -15 -10 -15 -5 0 -10 7 -10
15 0 8 5 15 10 15 6 0 10 -7 10 -15z m-38 -37 c-5 -22 -129 -333 -171 -430
l-20 -48 29 0 c36 0 48 -16 17 -24 -34 -9 -115 -7 -121 3 -6 10 16 21 42 21
12 1 33 42 77 152 33 83 62 155 63 160 2 4 -44 8 -102 8 -68 0 -106 4 -106 11
0 7 36 9 108 7 l108 -3 34 83 c33 78 55 109 42 60z m-2602 -52 c-12 -31 -24
-56 -26 -56 -6 0 3 34 16 65 4 11 11 29 14 39 4 10 9 17 12 14 2 -3 -5 -31
-16 -62z m2255 46 c-3 -3 -11 0 -18 7 -9 10 -8 11 6 5 10 -3 15 -9 12 -12z
m2505 -1 c14 -27 13 -29 -15 -27 -16 0 -25 7 -25 17 0 33 24 39 40 10z m-4780
-32 c-13 -23 -50 -23 -58 0 -3 8 0 11 6 7 5 -3 21 -2 34 3 12 6 24 10 26 10 1
1 -2 -8 -8 -20z m1078 -9 c-7 -10 -14 -17 -17 -15 -4 4 18 35 25 35 2 0 -1 -9
-8 -20z m232 -89 c0 -95 -14 -155 -35 -147 -7 2 -18 -1 -24 -7 -8 -8 -11 -8
-11 2 0 7 -4 9 -10 6 -13 -8 -32 4 -25 16 4 5 14 5 27 -2 15 -8 23 -8 32 2 8
9 8 10 -4 4 -8 -4 -5 2 8 14 20 20 22 31 22 117 0 61 4 93 10 89 6 -3 10 -46
10 -94z m-197 72 c-7 -2 -19 -2 -25 0 -7 3 -2 5 12 5 14 0 19 -2 13 -5z m-917
-21 c21 -14 23 -41 5 -64 -16 -19 -21 -20 -35 -9 -19 16 -21 67 -3 74 17 8 21
8 33 -1z m2740 -27 c-6 -23 -4 -25 29 -25 29 0 37 5 46 27 8 23 12 24 23 12 8
-8 17 -24 21 -37 6 -22 5 -22 -74 -20 -45 2 -80 5 -78 8 1 3 9 17 16 33 18 34
25 35 17 2z m1330 -17 c-8 -56 -79 -319 -84 -314 -4 5 53 274 69 324 15 45 23
40 15 -10z m552 -19 c2 -13 -12 -14 -91 -11 -161 7 -187 -20 -187 -203 0 -108
1 -115 20 -115 11 0 20 -4 20 -10 0 -5 -9 -10 -20 -10 -19 0 -20 -7 -20 -105
0 -171 21 -195 176 -195 89 0 105 3 129 22 50 39 55 67 55 309 l0 222 -64 -5
c-35 -3 -69 -9 -75 -12 -7 -5 -11 -50 -11 -127 0 -93 -3 -119 -13 -119 -17 0
-32 216 -18 253 6 14 23 29 42 36 35 12 120 15 157 4 l24 -6 -4 -246 c-3 -236
-4 -248 -26 -286 -41 -70 -62 -80 -187 -83 -102 -3 -113 -2 -144 20 -67 46
-76 66 -79 199 l-4 119 -46 0 c-34 0 -43 3 -32 10 8 5 29 10 46 10 l32 0 3
129 c4 144 13 167 79 205 67 39 230 35 238 -5z m-3999 24 c-21 -3 -26 -9 -22
-24 6 -23 -22 -69 -42 -69 -8 0 -15 5 -15 11 0 5 4 8 9 4 5 -3 17 5 25 17 12
17 13 25 4 36 -15 17 6 32 42 30 l25 -1 -26 -4z m3473 -15 c-7 -7 -12 -8 -12
-2 0 14 12 26 19 19 2 -3 -1 -11 -7 -17z m-4839 3 c97 -1 157 -5 157 -11 0
-11 -681 -13 -709 -2 -34 13 27 18 207 16 103 -1 258 -3 345 -3z m537 -1 c-1
-21 -25 -25 -119 -20 l-103 5 -19 -37 c-10 -20 -41 -91 -68 -157 -27 -66 -54
-128 -59 -137 -9 -16 -41 -17 -348 -16 -402 0 -374 0 -374 12 0 9 256 16 394
11 23 -1 43 4 48 11 6 10 8 10 8 1 0 -9 19 -13 60 -13 47 0 60 3 60 15 0 8 7
15 16 15 10 0 14 -6 10 -15 -4 -12 5 -15 49 -15 53 0 55 1 74 38 10 20 33 73
50 117 18 44 43 105 57 135 l25 55 119 0 c66 0 120 -2 120 -5z m1147 -15 c-9
-7 -28 -10 -41 -8 -32 6 -40 -8 -111 -189 l-58 -148 -33 0 c-19 0 -34 5 -34
11 0 5 5 7 10 4 17 -11 49 5 56 28 12 42 116 302 124 312 5 6 30 9 56 6 41 -3
46 -5 31 -16z m1753 11 c0 -12 -27 -14 -140 -15 -87 -1 -140 2 -140 8 0 6 53
12 133 14 72 1 135 4 140 5 4 1 7 -4 7 -12z m655 3 c91 -2 95 -3 45 -9 -83
-12 -500 -12 -500 0 0 9 248 20 320 13 19 -1 80 -3 135 -4z m-2095 -9 c0 -5
-13 -10 -30 -10 -17 0 -30 -5 -30 -12 0 -6 -39 -109 -86 -227 -47 -119 -106
-270 -131 -336 -45 -121 -63 -156 -63 -120 0 17 33 110 201 558 26 71 45 135
42 143 -4 11 6 14 46 14 28 0 51 -4 51 -10z m2523 3 c-51 -2 -135 -2 -185 0
-51 1 -10 3 92 3 102 0 143 -2 93 -3z m-4617 -61 l-29 -27 23 32 c13 18 26 30
29 28 3 -3 -8 -18 -23 -33z m844 -67 c0 -48 -8 -75 -21 -75 -10 0 -12 113 -3
123 14 14 24 -6 24 -48z m1040 35 c0 -5 -7 -7 -15 -4 -8 4 -15 8 -15 10 0 2 7
4 15 4 8 0 15 -4 15 -10z m-2120 -7 c-8 -3 -18 -11 -22 -17 -5 -7 -8 -4 -8 7
0 11 7 17 23 16 15 0 17 -2 7 -6z m50 -8 c0 -8 -7 -15 -15 -15 -8 0 -15 7 -15
15 0 8 7 15 15 15 8 0 15 -7 15 -15z m30 1 c0 -8 -4 -17 -9 -21 -6 -3 -9 4 -8
15 1 23 17 28 17 6z m316 -4 c1 -7 0 -8 -3 -2 -2 5 -11 10 -19 10 -9 0 -12 -4
-9 -10 3 -5 1 -10 -4 -10 -12 0 -14 13 -4 24 11 10 36 3 39 -12z m-125 -19
c-12 -20 -14 -14 -5 12 4 9 9 14 11 11 3 -2 0 -13 -6 -23z m59 17 c0 -5 -5
-10 -11 -10 -5 0 -7 5 -4 10 3 6 8 10 11 10 2 0 4 -4 4 -10z m3588 -52 c-2
-24 -7 -42 -13 -41 -13 3 -18 29 -11 59 11 40 27 27 24 -18z m530 -2 c-2 -13
-12 -22 -25 -24 -19 -3 -23 1 -23 21 0 14 6 27 13 30 22 7 38 -5 35 -27z
m-4713 -1 c0 -22 -31 -33 -47 -17 -17 17 -1 44 24 40 15 -2 23 -10 23 -23z
m150 15 c8 -13 -13 -40 -31 -40 -14 0 -19 31 -7 43 10 10 31 8 38 -3z m575
-20 c0 -11 -5 -22 -12 -26 -7 -4 -8 -3 -4 5 4 7 5 19 2 28 -6 14 -8 14 -21 -3
-8 -10 -15 -14 -15 -8 0 16 21 33 36 27 8 -3 14 -13 14 -23z m550 16 c0 -16
-18 -31 -27 -22 -8 8 5 36 17 36 5 0 10 -6 10 -14z m240 -1 c10 -12 10 -18 0
-30 -24 -29 -58 -7 -44 30 4 8 12 15 19 15 7 0 18 -7 25 -15z m518 -11 c3 -22
-21 -39 -39 -28 -11 6 -12 38 -2 48 13 13 38 1 41 -20z m981 13 c15 -19 -10
-53 -33 -44 -16 6 -22 38 -9 50 10 11 30 8 42 -6z m929 -14 c-2 -20 -9 -28
-23 -28 -14 0 -21 8 -23 28 -3 23 0 27 23 27 23 0 26 -4 23 -27z m517 -3 c0
-18 -6 -26 -23 -28 -13 -2 -25 3 -28 12 -10 26 4 48 28 44 17 -2 23 -10 23
-28z m715 0 c0 -27 -19 -35 -38 -17 -12 13 -13 19 -3 31 16 19 41 10 41 -14z
m-4721 11 c10 -7 11 -13 2 -30 -15 -26 -31 -19 -31 15 0 25 7 29 29 15z m3344
-248 l-6 -163 157 0 c150 0 156 1 156 20 0 11 -6 23 -14 26 -10 4 -12 18 -8
49 4 43 4 44 -29 48 l-34 4 38 1 37 2 0 -45 c0 -56 16 -58 30 -4 16 58 24 41
11 -21 -17 -79 -18 -76 58 -83 37 -3 84 -12 103 -20 46 -19 153 -120 184 -174
16 -26 33 -43 44 -43 11 0 22 -4 25 -10 4 -6 -5 -10 -20 -10 -21 0 -26 -4 -21
-16 3 -9 6 -272 6 -585 l0 -569 35 0 c19 0 35 -4 35 -9 0 -8 -29 -74 -93 -211
-16 -36 -33 -83 -36 -105 -5 -34 -10 -40 -31 -40 -32 0 -41 34 -11 42 12 3 25
19 32 42 6 20 33 84 60 144 47 107 47 107 23 107 -17 0 -24 -6 -24 -19 0 -60
-93 -178 -180 -229 -45 -27 -46 -27 -288 -30 -183 -3 -243 -6 -239 -15 17 -47
18 -57 3 -51 -9 3 -16 14 -16 24 0 28 -20 37 -92 43 -47 3 -80 12 -111 31 -80
46 -176 171 -177 229 0 14 -9 17 -45 17 -45 0 -60 12 -29 24 9 3 29 6 45 6
l29 0 0 599 0 599 40 60 c74 111 145 156 263 168 l67 7 1 46 c0 25 4 69 8 98
6 41 4 56 -8 68 -14 13 -20 11 -61 -28 l-45 -42 44 47 c24 26 48 45 53 42 4
-3 8 26 8 65 0 38 3 78 7 88 15 37 22 -63 16 -224z m-3633 219 c0 -13 -12 -22
-22 -16 -10 6 -1 24 13 24 5 0 9 -4 9 -8z m1604 -31 c-5 -33 -3 -41 15 -53 23
-14 28 -38 8 -38 -13 0 -33 50 -40 100 l-4 25 -11 -25 c-6 -14 -11 -20 -11
-13 -1 6 -4 18 -7 27 -5 13 1 16 25 16 31 0 31 -1 25 -39z m-163 -8 c-12 -20
-14 -14 -5 12 4 9 9 14 11 11 3 -2 0 -13 -6 -23z m4165 -59 c-15 -31 -29 -55
-32 -52 -3 3 7 31 22 62 36 72 44 64 10 -10z m-391 -292 c-14 -14 -17 18 -16
162 2 216 15 229 19 17 1 -96 0 -176 -3 -179z m-3804 295 l-23 -22 17 28 c10
15 20 25 23 22 3 -3 -5 -16 -17 -28z m-233 -63 c3 -75 -3 -114 -18 -114 -6 0
-10 40 -10 96 0 72 3 95 13 92 7 -3 13 -30 15 -74z m1126 51 c3 -8 1 -15 -4
-15 -6 0 -10 7 -10 15 0 8 2 15 4 15 2 0 6 -7 10 -15z m-773 -55 c-4 -28 -9
-40 -14 -32 -7 11 10 89 18 80 1 -2 0 -23 -4 -48z m3626 18 c-3 -8 -6 -5 -6 6
-1 11 2 17 5 13 3 -3 4 -12 1 -19z m-4347 -10 c0 -15 -9 -18 -49 -18 l-48 0
-56 -132 c-30 -73 -62 -150 -71 -170 -16 -41 -21 -42 -100 -32 -65 9 -57 24
13 24 l58 0 26 58 c23 52 98 237 109 272 4 11 21 15 62 15 47 0 56 -3 56 -17z
m190 2 c0 -24 -110 -26 -118 -2 -3 9 13 12 57 12 34 0 61 -4 61 -10z m810 1
c0 -10 -68 -20 -87 -13 -29 10 -9 22 37 22 28 0 50 -4 50 -9z m980 -1 c12 -8
9 -10 -12 -10 -16 0 -28 5 -28 10 0 13 20 13 40 0z m1125 0 c4 -6 -12 -9 -42
-9 l-48 2 40 7 c22 4 41 8 42 9 1 0 5 -3 8 -9z m640 0 c3 -5 -5 -12 -18 -15
-37 -10 -120 -1 -125 13 -5 15 133 18 143 2z m130 0 c4 -6 -10 -10 -35 -10
-25 0 -39 4 -35 10 3 6 19 10 35 10 16 0 32 -4 35 -10z m125 0 c0 -5 -18 -10
-41 -10 -24 0 -38 4 -34 10 3 6 22 10 41 10 19 0 34 -4 34 -10z m89 -11 c-16
-10 -23 -4 -14 10 3 6 11 8 17 5 6 -4 5 -9 -3 -15z m121 11 c0 -5 -16 -10 -36
-10 -21 0 -33 4 -29 10 3 6 19 10 36 10 16 0 29 -4 29 -10z m-1053 -6 c-3 -3
-12 -4 -19 -1 -8 3 -5 6 6 6 11 1 17 -2 13 -5z m-3673 -131 c-2 -42 -6 -79 -9
-81 -11 -12 -19 11 -20 61 -1 30 -5 60 -10 67 -9 14 22 43 36 35 4 -3 6 -40 3
-82z m1994 20 c-4 -81 -28 -85 -28 -4 0 48 3 61 15 61 13 0 15 -11 13 -57z
m2848 20 c-4 -21 -12 -56 -18 -78 -9 -34 -12 -37 -19 -20 -11 28 -11 54 -1 37
6 -8 13 7 21 43 14 62 27 76 17 18z m454 17 c-8 -5 -26 -9 -40 -9 -23 1 -23 2
5 9 43 11 52 11 35 0z m-1434 -66 c-15 -36 -31 -60 -42 -63 -17 -3 -17 -2 -1
20 10 13 27 43 39 66 30 60 33 48 4 -23z m1299 56 c-27 -12 -43 -12 -25 0 8 5
22 9 30 9 10 0 8 -3 -5 -9z m-5626 -54 c15 -18 3 -46 -20 -46 -25 0 -35 26
-19 45 15 19 24 19 39 1z m661 -7 c0 -11 -4 -17 -10 -14 -5 3 -10 13 -10 21 0
8 5 14 10 14 6 0 10 -9 10 -21z m288 -7 c3 -18 -2 -22 -22 -22 -28 0 -34 18
-14 38 17 17 32 10 36 -16z m1080 19 c20 -12 10 -46 -14 -49 -25 -4 -40 24
-23 44 13 16 19 17 37 5z m550 -3 c7 -7 8 -17 1 -30 -14 -26 -39 -23 -39 5 0
36 16 47 38 25z m3690 -22 c-2 -13 -12 -22 -25 -24 -19 -3 -23 1 -23 21 0 14
6 27 13 30 22 7 38 -5 35 -27z m-5093 -1 c0 -22 -31 -33 -47 -17 -17 17 -1 44
24 40 15 -2 23 -10 23 -23z m2448 13 c6 -19 -3 -38 -18 -38 -18 0 -28 17 -21
35 7 18 33 20 39 3z m844 -4 c2 -7 -4 -19 -13 -29 -14 -14 -19 -14 -31 -2 -19
19 -6 49 20 45 11 -2 22 -8 24 -14z m248 -9 c0 -25 -40 -33 -49 -10 -9 24 2
37 27 33 14 -2 22 -10 22 -23z m805 5 c0 -24 -26 -38 -42 -22 -16 16 -2 42 22
42 13 0 20 -7 20 -20z m-5252 -2 c-6 -18 -28 -21 -28 -4 0 9 7 16 16 16 9 0
14 -5 12 -12z m297 1 c10 -15 -1 -23 -20 -15 -9 3 -13 10 -10 16 8 13 22 13
30 -1z m774 -41 c0 -39 -3 -48 -9 -33 -12 28 -12 85 0 85 6 0 10 -24 9 -52z
m-689 -2 c0 -8 -4 -17 -9 -21 -12 -7 -24 12 -16 25 9 15 25 12 25 -4z m-508
-11 c0 -5 -5 -11 -11 -13 -6 -2 -11 4 -11 13 0 9 5 15 11 13 6 -2 11 -8 11
-13z m156 -14 c3 -8 -1 -12 -9 -9 -7 2 -15 10 -17 17 -3 8 1 12 9 9 7 -2 15
-10 17 -17z m1642 -708 l0 -728 192 0 c121 0 194 -4 195 -10 2 -6 -67 -10
-192 -10 l-195 0 0 -167 0 -166 -97 -4 c-107 -5 -138 5 -109 34 13 14 14 57
10 324 -2 170 -4 504 -4 742 l0 432 -128 0 -128 0 -32 86 c-18 48 -30 89 -27
93 11 10 429 99 473 100 l42 1 0 -727z m3327 695 c-3 -8 -6 -5 -6 6 -1 11 2
17 5 13 3 -3 4 -12 1 -19z m-4317 -24 c0 -8 -4 -12 -10 -9 -5 3 -10 10 -10 16
0 5 5 9 10 9 6 0 10 -7 10 -16z m3950 -214 c-33 -124 -66 -245 -74 -270 l-15
-45 6 40 c3 22 18 89 33 149 15 61 26 116 23 123 -3 7 -1 13 4 13 5 0 17 33
28 73 19 76 45 150 51 144 2 -1 -23 -104 -56 -227z m-4430 193 c0 -8 5 -11 10
-8 16 10 12 -15 -5 -31 -9 -10 -15 -34 -15 -66 0 -70 -24 -60 -28 13 -2 29 -9
57 -15 61 -9 6 -7 11 6 19 9 5 17 16 17 24 0 9 6 12 15 9 8 -4 15 -13 15 -21z
m-307 -44 c-6 -6 -7 3 -4 23 4 28 6 29 9 9 2 -13 0 -27 -5 -32z m495 33 c6
-18 -15 -14 -22 4 -4 10 -1 14 6 12 6 -2 14 -10 16 -16z m685 -81 l-2 -91 59
0 c32 0 62 -4 65 -10 7 -11 3 -12 -68 -15 l-49 -1 1 -251 c2 -246 -2 -303 -20
-303 -6 0 -9 114 -9 276 1 152 0 277 -2 279 -2 2 -2 51 0 110 2 76 7 105 15
102 8 -3 11 -33 10 -96z m1138 -63 c-22 -79 -58 -210 -80 -293 -38 -145 -59
-211 -60 -190 -2 34 141 591 162 630 25 47 16 -13 -22 -147z m-2384 132 c-1
-22 -17 -28 -17 -7 0 12 9 27 16 27 2 0 2 -9 1 -20z m243 -2 c0 -16 -3 -19
-11 -11 -6 6 -8 16 -5 22 11 17 16 13 16 -11z m249 2 c-7 -5 -19 -6 -26 -3
-11 5 -12 8 -2 13 7 5 19 6 26 3 11 -5 12 -8 2 -13z m5678 -24 c-8 -20 -43
-21 -51 -1 -3 8 2 22 11 30 14 15 18 15 31 1 8 -8 12 -22 9 -30z m-5966 21
c-1 -12 -15 -9 -19 4 -3 6 1 10 8 8 6 -3 11 -8 11 -12z m69 3 c0 -5 -2 -10 -4
-10 -3 0 -8 5 -11 10 -3 6 -1 10 4 10 6 0 11 -4 11 -10z m5020 -50 c0 -73 -17
-80 -22 -10 -3 55 -1 70 13 70 5 0 9 -27 9 -60z m-113 -7 c-3 -10 -5 -4 -5 12
0 17 2 24 5 18 2 -7 2 -21 0 -30z m-4340 -10 c-3 -10 -5 -4 -5 12 0 17 2 24 5
18 2 -7 2 -21 0 -30z m4257 -196 c-21 -84 -40 -143 -42 -131 -1 11 13 85 33
164 19 78 36 146 36 149 1 3 3 -2 6 -12 3 -11 -12 -87 -33 -170z m-4124 87 c0
-13 -20 -15 -130 -13 -100 2 -130 5 -130 15 0 10 29 14 123 16 67 2 125 2 130
0 4 -2 7 -10 7 -18z m4338 3 c3 -12 -3 -17 -22 -17 -25 0 -35 18 -19 34 12 12
38 2 41 -17z m-5098 -3 c0 -2 -33 -3 -72 -3 -58 2 -65 3 -33 8 39 6 105 3 105
-5z m220 7 c0 -10 -76 -20 -102 -13 -10 2 -15 8 -12 13 7 12 114 12 114 0z
m160 -7 c0 -14 -7 -15 -37 -10 -21 3 -50 6 -65 6 -16 0 -28 5 -28 10 0 6 28
10 65 10 53 0 65 -3 65 -16z m55 6 c3 -5 -3 -10 -14 -10 -12 0 -21 5 -21 10 0
6 6 10 14 10 8 0 18 -4 21 -10z m535 -5 c0 -16 -35 -20 -64 -9 -29 11 -16 24
24 24 29 0 40 -4 40 -15z m923 0 c-3 -11 -107 -19 -130 -11 -8 3 -11 11 -8 16
9 14 141 9 138 -5z m127 6 c0 -9 -48 -21 -86 -21 -15 0 -24 6 -24 15 0 12 13
15 55 15 30 0 55 -4 55 -9z m278 -3 c-3 -7 -12 -13 -21 -12 -9 0 -31 1 -48 2
-47 3 -24 22 27 22 32 0 44 -4 42 -12z m177 3 c3 -5 -5 -11 -17 -13 -35 -5
-88 3 -88 13 0 12 97 12 105 0z m103 -3 c-7 -20 -48 -23 -48 -4 0 11 9 16 26
16 16 0 24 -5 22 -12z m250 0 c-3 -7 -12 -13 -21 -12 -9 0 -48 1 -87 2 -105 3
-87 22 21 22 68 0 90 -3 87 -12z m92 -3 c0 -9 -9 -15 -25 -15 -16 0 -25 6 -25
15 0 9 9 15 25 15 16 0 25 -6 25 -15z m155 5 c4 -6 -18 -10 -60 -10 -42 0 -64
4 -60 10 3 6 30 10 60 10 30 0 57 -4 60 -10z m1373 1 c18 -11 -61 -20 -109
-13 -32 5 -33 6 -9 13 35 10 103 10 118 0z m312 -1 c0 -6 -27 -9 -62 -9 -58 2
-60 2 -23 9 61 11 85 11 85 0z m475 -5 c6 -2 -18 -4 -52 -4 -35 -1 -63 3 -63
8 0 7 90 4 115 -4z m675 5 c0 -6 -34 -10 -81 -10 -51 0 -78 4 -74 10 3 6 40
10 81 10 43 0 74 -4 74 -10z m63 -7 c-7 -2 -21 -2 -30 0 -10 3 -4 5 12 5 17 0
24 -2 18 -5z m-5808 -33 c3 -5 3 -15 -1 -21 -4 -8 -9 -7 -15 2 -7 11 -9 10 -9
-3 0 -10 5 -18 11 -18 5 0 8 -4 5 -9 -4 -5 0 -12 6 -14 10 -4 10 -7 0 -15 -15
-10 -15 -21 -1 -38 12 -15 1 -44 -17 -44 -16 0 -21 22 -27 102 -2 35 1 59 7
62 19 8 35 6 41 -4z m4915 -165 c0 -90 -4 -145 -10 -145 -6 0 -10 55 -10 145
0 90 4 145 10 145 6 0 10 -55 10 -145z m-4436 59 c8 -21 -1 -34 -24 -34 -22 0
-34 15 -26 35 7 20 42 19 50 -1z m1630 1 c8 -23 -4 -45 -25 -45 -11 0 -22 7
-25 15 -9 23 3 45 25 45 10 0 21 -7 25 -15z m3506 -9 c0 -28 -28 -42 -47 -23
-19 19 -5 47 23 47 19 0 24 -5 24 -24z m-3864 3 c7 -12 -22 -46 -32 -37 -8 9
5 48 16 48 5 0 12 -5 16 -11z m-1966 -19 c0 -11 -4 -20 -10 -20 -5 0 -10 9
-10 20 0 11 5 20 10 20 6 0 10 -9 10 -20z m110 5 c0 -8 -6 -15 -14 -15 -20 0
-29 17 -14 23 22 9 28 7 28 -8z m210 -1 c0 -11 -5 -14 -16 -10 -9 3 -18 6 -20
6 -3 0 -2 5 1 10 10 16 35 12 35 -6z m57 2 c-3 -8 -1 -17 6 -19 7 -2 9 -7 6
-11 -9 -10 -41 23 -34 35 10 15 28 10 22 -5z m-347 0 c0 -3 -4 -8 -10 -11 -5
-3 -10 -1 -10 4 0 6 5 11 10 11 6 0 10 -2 10 -4z m30 0 c0 -3 -4 -8 -10 -11
-5 -3 -10 -1 -10 4 0 6 5 11 10 11 6 0 10 -2 10 -4z m507 -43 c-3 -10 -5 -2
-5 17 0 19 2 27 5 18 2 -10 2 -26 0 -35z m2537 22 c-4 -8 -8 -15 -10 -15 -2 0
-4 7 -4 15 0 8 4 15 10 15 5 0 7 -7 4 -15z m-3099 -36 c4 -11 4 -23 1 -26 -3
-4 -6 -1 -6 6 0 7 -4 9 -10 6 -5 -3 -10 3 -10 14 0 27 17 27 25 0z m820 -159
c-30 -73 -60 -139 -66 -147 -19 -22 -63 -15 -87 12 -26 29 -27 41 -8 48 18 7
26 -1 26 -29 0 -52 52 -38 75 19 62 154 110 260 113 247 1 -9 -22 -76 -53
-150z m-1535 134 c0 -8 -4 -12 -10 -9 -5 3 -10 10 -10 16 0 5 5 9 10 9 6 0 10
-7 10 -16z m60 1 c0 -8 -7 -15 -15 -15 -16 0 -20 12 -8 23 11 12 23 8 23 -8z
m60 0 c0 -8 -4 -15 -9 -15 -13 0 -22 16 -14 24 11 11 23 6 23 -9z m60 0 c0 -8
-4 -15 -10 -15 -5 0 -10 7 -10 15 0 8 5 15 10 15 6 0 10 -7 10 -15z m950 0 c0
-8 -10 -19 -22 -25 -22 -10 -22 -10 -4 4 10 8 15 19 11 25 -3 6 -1 11 4 11 6
0 11 -7 11 -15z m208 3 c14 -14 16 -28 2 -28 -5 0 -14 9 -20 20 -12 22 -1 27
18 8z m-126 -79 c-4 -69 -3 -72 17 -66 12 3 21 1 21 -4 0 -5 -14 -9 -31 -9
-30 0 -31 2 -25 31 3 17 6 51 6 75 0 24 3 44 8 44 4 0 5 -32 4 -71z m-502 36
c-14 -17 -30 -20 -30 -6 0 5 8 12 18 14 9 3 19 5 21 6 2 0 -2 -6 -9 -14z m670
-16 c0 -10 -7 -19 -15 -19 -17 0 -20 16 -5 25 6 4 7 11 4 17 -4 7 -2 8 4 4 7
-4 12 -16 12 -27z m-1380 -5 c0 -16 -16 -19 -25 -4 -8 13 4 32 16 25 5 -4 9
-13 9 -21z m40 0 c0 -8 -5 -12 -10 -9 -6 4 -8 11 -5 16 9 14 15 11 15 -7z
m150 9 c-1 -18 -18 -35 -24 -24 -4 6 -4 16 -1 21 7 12 25 13 25 3z m548 -18
c-3 -3 -9 2 -12 12 -6 14 -5 15 5 6 7 -7 10 -15 7 -18z m172 -35 c0 -33 -4
-60 -10 -60 -6 0 -10 27 -10 60 0 33 4 60 10 60 6 0 10 -27 10 -60z m128 34
c3 -22 -21 -39 -39 -28 -11 6 -12 38 -2 48 13 13 38 1 41 -20z m1990 -13 c-4
-35 -41 -37 -46 -2 -4 26 13 42 35 34 8 -3 13 -16 11 -32z m3035 24 c-3 -9 -8
-14 -10 -11 -3 3 -2 9 2 15 9 16 15 13 8 -4z m655 -19 c-2 -13 -12 -22 -26
-24 -29 -4 -42 26 -18 44 24 17 48 6 44 -20z m-3238 4 c-12 -23 -30 -27 -30
-7 0 17 10 27 27 27 11 0 11 -5 3 -20z m2905 -5 c0 -22 -31 -33 -47 -17 -17
17 -1 44 24 40 15 -2 23 -10 23 -23z m-5878 -7 c-3 -8 -6 -5 -6 6 -1 11 2 17
5 13 3 -3 4 -12 1 -19z m763 12 c0 -5 -4 -10 -10 -10 -5 0 -10 5 -10 10 0 6 5
10 10 10 6 0 10 -4 10 -10z m40 0 c0 -5 -7 -10 -15 -10 -8 0 -15 5 -15 10 0 6
7 10 15 10 8 0 15 -4 15 -10z m860 -30 c0 -4 -11 -10 -25 -12 -27 -6 -33 10
-13 30 12 12 38 -1 38 -18z m-790 -21 c0 -23 -5 -29 -20 -29 -17 0 -19 3 -10
19 5 11 7 27 4 35 -5 12 -2 15 10 10 10 -4 16 -18 16 -35z m4630 -50 c-22 -46
-40 -76 -40 -66 0 17 72 158 78 152 1 -1 -15 -40 -38 -86z m-2335 4 c-10 -25
-17 -55 -17 -67 0 -18 -6 -21 -38 -21 -26 0 -36 3 -33 12 3 7 13 13 23 13 12
0 26 20 46 66 31 73 47 70 19 -3z m-3615 22 c0 -8 -4 -15 -10 -15 -5 0 -10 7
-10 15 0 8 5 15 10 15 6 0 10 -7 10 -15z m50 -1 c0 -17 -22 -14 -28 4 -2 7 3
12 12 12 9 0 16 -7 16 -16z m70 6 c0 -5 -4 -10 -10 -10 -5 0 -10 5 -10 10 0 6
5 10 10 10 6 0 10 -4 10 -10z m5800 -5 c0 -8 -4 -15 -10 -15 -5 0 -10 7 -10
15 0 8 5 15 10 15 6 0 10 -7 10 -15z m-5568 -32 c18 -21 33 -172 15 -154 -6 6
-16 7 -28 1 -11 -7 -20 -7 -24 0 -3 5 -1 10 4 10 6 0 11 9 11 19 0 11 5 23 10
26 11 7 13 54 4 79 -8 20 -38 21 -54 1 -7 -8 -10 -29 -8 -45 5 -36 -4 -46 -22
-25 -25 30 17 105 58 105 11 0 26 -8 34 -17z m871 -13 c3 -11 1 -20 -4 -20 -5
0 -9 9 -9 20 0 11 2 20 4 20 2 0 6 -9 9 -20z m34 -2 c-3 -8 -6 -5 -6 6 -1 11
2 17 5 13 3 -3 4 -12 1 -19z m-1137 -2 c0 -16 -18 -31 -27 -22 -8 8 5 36 17
36 5 0 10 -6 10 -14z m-110 -4 c0 -13 -12 -22 -22 -16 -10 6 -1 24 13 24 5 0
9 -4 9 -8z m50 -2 c0 -5 -5 -10 -11 -10 -5 0 -7 5 -4 10 3 6 8 10 11 10 2 0 4
-4 4 -10z m2365 -22 c31 -14 16 -28 -32 -28 -36 0 -43 13 -15 29 21 13 17 13
47 -1z m275 2 c8 -5 17 -5 20 0 3 5 5 -20 5 -54 0 -56 -2 -61 -14 -44 -7 11
-11 30 -8 44 5 26 -15 50 -33 39 -5 -3 -10 1 -10 9 0 18 17 20 40 6z m3080
-20 c0 -16 -4 -30 -10 -30 -5 0 -10 14 -10 30 0 17 5 30 10 30 6 0 10 -13 10
-30z m-4922 -13 c3 -24 0 -27 -25 -27 -15 1 -41 7 -58 15 l-30 13 26 1 c15 1
32 8 39 16 19 23 45 14 48 -18z m5112 29 c0 -2 -8 -10 -17 -17 -16 -13 -17
-12 -4 4 13 16 21 21 21 13z m-856 -21 c-4 -8 -10 -12 -15 -9 -11 6 -2 24 11
24 5 0 7 -7 4 -15z m-5118 -22 c-10 -10 -19 5 -10 18 6 11 8 11 12 0 2 -7 1
-15 -2 -18z m64 11 c0 -8 -4 -12 -10 -9 -5 3 -10 10 -10 16 0 5 5 9 10 9 6 0
10 -7 10 -16z m4978 9 c-10 -2 -28 -2 -40 0 -13 2 -5 4 17 4 22 1 32 -1 23 -4z
m-4910 -15 c-6 -18 -28 -21 -28 -4 0 9 7 16 16 16 9 0 14 -5 12 -12z m1000 -9
c-2 -6 -7 -10 -11 -10 -4 1 -15 1 -24 1 -15 0 -16 2 -3 10 20 13 43 13 38 -1z
m206 -63 c-3 -9 -10 -16 -15 -16 -11 0 -12 43 -2 54 10 10 24 -20 17 -38z
m-47 28 c-3 -3 -12 -4 -19 -1 -8 3 -5 6 6 6 11 1 17 -2 13 -5z m-215 -43 c2
-22 0 -37 -4 -35 -8 5 -11 74 -4 74 2 0 6 -18 8 -39z m1818 23 c0 -10 -7 -14
-22 -12 -31 4 -35 -27 -9 -63 12 -15 21 -31 21 -36 0 -4 -11 8 -25 27 -24 32
-33 79 -18 93 13 14 53 7 53 -9z m-2880 -9 c0 -8 -4 -15 -10 -15 -5 0 -10 7
-10 15 0 8 5 15 10 15 6 0 10 -7 10 -15z m120 0 c0 -8 -4 -15 -9 -15 -13 0
-22 16 -14 24 11 11 23 6 23 -9z m-62 -6 c-2 -6 -8 -10 -13 -10 -5 0 -11 4
-13 10 -2 6 4 11 13 11 9 0 15 -5 13 -11z m3662 -80 c5 -8 5 -21 1 -27 -5 -8
-19 10 -40 50 l-32 63 31 -35 c17 -19 35 -42 40 -51z m-3326 39 c15 -29 15
-33 0 -50 -32 -35 -65 -11 -38 27 8 10 14 27 14 37 0 26 6 22 24 -14z m1137
-9 c-16 -46 -15 -47 24 -45 39 2 42 -2 19 -30 -14 -17 -15 -17 -10 -1 3 10 2
16 -3 12 -5 -3 -21 -1 -35 5 l-25 9 16 46 c8 25 18 44 20 41 3 -3 0 -19 -6
-37z m1690 -40 c-5 -30 -9 -42 -10 -28 -1 30 10 92 15 86 3 -2 0 -28 -5 -58z
m2557 4 c-2 -35 -7 -48 -18 -48 -10 0 -16 12 -18 33 -4 43 3 62 23 62 13 0 15
-10 13 -47z m-5055 13 c3 -7 -9 -55 -26 -106 -17 -52 -32 -89 -34 -84 -2 6 6
36 17 69 24 69 25 85 6 85 -21 0 -27 27 -10 44 16 16 40 12 47 -8z m601 8 c20
-19 20 -19 0 -39 -19 -18 -44 -4 -44 25 0 32 20 39 44 14z m-484 -73 c0 -63 2
-69 25 -79 29 -14 33 -47 8 -74 -38 -42 -86 -2 -63 53 7 16 10 45 7 63 -7 43
3 117 14 110 5 -3 9 -36 9 -73z m275 69 c3 -5 1 -10 -4 -10 -6 0 -11 -7 -11
-15 0 -8 -4 -15 -10 -15 -5 0 -10 7 -10 15 0 8 5 15 11 15 5 0 7 5 4 10 -3 6
-2 10 4 10 5 0 13 -4 16 -10z m610 -10 c8 -25 -3 -62 -16 -55 -12 8 -12 75 0
75 5 0 13 -9 16 -20z m183 -3 c4 -20 -25 -34 -40 -19 -15 15 -1 44 19 40 10
-2 19 -11 21 -21z m1050 -11 c-2 -15 -10 -21 -27 -21 -30 0 -37 17 -16 38 20
21 47 10 43 -17z m438 19 c4 -8 3 -23 -1 -32 -8 -17 -8 -17 -12 0 -6 22 -23
22 -23 0 0 -12 -3 -14 -11 -6 -16 16 -1 53 22 53 11 0 22 -7 25 -15z m234 -9
c0 -28 -24 -41 -40 -21 -16 20 -5 45 20 45 14 0 20 -7 20 -24z m1465 -6 c0
-29 -32 -41 -41 -16 -9 24 4 48 23 44 12 -2 18 -12 18 -28z m463 4 c2 -12 -4
-24 -12 -27 -19 -7 -40 18 -32 39 8 22 40 13 44 -12z m447 -4 c0 -29 -32 -41
-41 -16 -9 24 4 48 23 44 12 -2 18 -12 18 -28z m313 4 c4 -29 -28 -41 -45 -18
-10 13 -10 21 -1 31 16 19 42 12 46 -13z m147 -4 c0 -18 -6 -26 -21 -28 -26
-4 -40 24 -23 45 18 21 44 11 44 -17z m183 2 c4 -26 -22 -40 -43 -22 -11 9
-12 17 -4 32 13 25 43 19 47 -10z m-6219 -17 c-12 -19 -26 -38 -32 -42 -11 -7
-5 6 25 50 27 38 31 34 7 -8z m639 23 c-2 -6 -10 -14 -16 -16 -7 -2 -10 2 -6
12 7 18 28 22 22 4z m1565 5 c-7 -2 -13 -9 -13 -15 0 -6 7 -7 16 -4 8 3 12 2
9 -4 -9 -15 -35 -12 -35 3 0 17 10 27 24 26 6 0 5 -3 -1 -6z m557 -32 c0 -22
5 -42 10 -44 6 -3 5 -4 -2 -3 -7 1 -14 17 -16 34 -4 36 -18 41 -38 15 -11 -15
-13 -16 -14 -2 0 20 20 39 42 39 14 0 18 -8 18 -39z m-1465 -131 c7 -44 -1
-100 -16 -100 -5 0 -9 32 -9 70 0 76 14 94 25 30z m4065 0 c0 -20 7 -20 345
-20 223 0 345 -4 345 -10 0 -6 -123 -10 -349 -10 -270 0 -350 -3 -354 -12 -3
-7 -6 6 -6 30 -1 23 4 42 9 42 6 0 10 -9 10 -20z m-5375 -30 c4 -6 -25 -10
-79 -10 -51 0 -86 4 -86 10 0 6 33 10 79 10 44 0 83 -4 86 -10z m975 0 c10 -7
-17 -10 -82 -10 -54 0 -98 4 -98 9 0 12 161 13 180 1z m235 0 c13 -6 -8 -8
-61 -7 -45 1 -80 5 -77 10 6 10 113 8 138 -3z m1635 0 c10 -6 -135 -10 -417
-10 -282 0 -433 3 -433 10 0 13 829 13 850 0z m520 0 c0 -13 -220 -13 -240 0
-10 7 26 10 113 10 78 0 127 -4 127 -10z m1716 1 c-8 -12 -107 -24 -129 -15
-37 14 -13 24 59 24 41 0 73 -4 70 -9z m219 -1 c4 -6 -23 -10 -74 -10 -47 0
-81 4 -81 10 0 6 31 10 74 10 41 0 78 -4 81 -10z m-4872 -203 c-2 -10 -10 -16
-16 -14 -13 4 -12 129 0 157 8 18 23 -117 16 -143z m881 97 c8 -20 8 -308 0
-328 -17 -45 -24 1 -24 164 0 163 7 209 24 164z m-1175 -284 c-45 -151 -90
-308 -102 -348 -11 -39 -22 -70 -24 -68 -8 8 150 584 183 666 40 100 19 8 -57
-250z m3001 272 c0 -15 -42 -133 -46 -129 -2 2 5 30 16 62 11 32 20 59 20 61
0 1 -17 1 -37 -1 -35 -2 -36 -2 -8 5 43 11 55 11 55 2z m2221 -79 c1 -43 1
-82 0 -87 -5 -26 12 -46 40 -46 18 0 28 -4 24 -10 -3 -5 -19 -10 -36 -10 l-29
0 0 -190 c0 -120 -4 -190 -10 -190 -6 0 -10 108 -10 305 0 197 4 305 10 305 6
0 11 -33 11 -77z m-5392 43 c15 -18 3 -46 -20 -46 -22 0 -34 22 -25 45 7 19
30 19 45 1z m726 -16 c0 -29 -32 -41 -41 -16 -9 24 4 48 23 44 12 -2 18 -12
18 -28z m224 12 c12 -22 -3 -42 -31 -42 -12 0 -18 8 -18 23 0 40 31 52 49 19z
m1326 -12 c0 -16 -6 -26 -18 -28 -19 -4 -32 20 -23 44 9 25 41 13 41 -16z
m293 21 c20 -12 10 -46 -14 -49 -25 -4 -40 24 -23 44 13 16 19 17 37 5z m2147
-21 c0 -18 -6 -26 -21 -28 -26 -4 -40 24 -23 45 18 21 44 11 44 -17z m460 0
c0 -29 -32 -41 -41 -16 -9 24 4 48 23 44 12 -2 18 -12 18 -28z m454 11 c8 -14
7 -22 -4 -31 -19 -16 -45 -6 -45 18 0 36 33 45 49 13z m-5865 -164 c35 -87 46
-131 26 -111 -8 8 -80 197 -80 211 0 20 23 -23 54 -100z m-114 57 c0 -14 -12
-19 -23 -8 -9 9 4 35 14 28 5 -3 9 -12 9 -20z m800 -19 c0 -8 -4 -15 -10 -15
-5 0 -10 7 -10 15 0 8 5 15 10 15 6 0 10 -7 10 -15z m2624 -124 c-20 -62 -38
-110 -41 -107 -2 2 7 40 21 85 l24 81 -23 0 c-13 0 -27 5 -30 10 -6 10 13 14
47 11 9 -1 19 8 23 19 4 12 9 20 11 17 2 -2 -12 -54 -32 -116z m-1794 74 c0
-12 -29 -15 -156 -17 l-156 -3 -26 -62 c-14 -35 -29 -63 -34 -63 -7 0 6 38 45
130 l15 35 156 -3 c127 -2 156 -6 156 -17z m-895 0 c0 -5 -33 -11 -72 -13 -67
-3 -85 3 -66 22 11 10 138 2 138 -9z m77 -62 c-2 -43 -6 -80 -8 -82 -9 -9 -12
7 -16 82 -3 64 -1 77 12 77 13 0 15 -13 12 -77z m436 65 c-4 -10 -49 -14 -173
-16 -172 -3 -201 0 -190 18 10 16 368 13 363 -2z m665 -3 c-2 -5 -25 -11 -53
-13 -46 -3 -60 4 -43 22 11 11 98 2 96 -9z m1105 -2 c3 -10 -25 -13 -116 -13
-105 0 -121 -2 -127 -17 -7 -19 -148 -416 -252 -713 -35 -102 -71 -195 -79
-208 -11 -17 -24 -22 -53 -22 -22 0 -46 3 -55 6 -33 13 -14 24 38 24 l55 0 19
53 c11 28 44 120 72 202 29 83 73 206 98 275 119 335 140 400 132 400 -5 0 -7
7 -4 15 5 13 27 15 137 13 93 -2 132 -7 135 -15z m265 7 c4 0 7 -3 7 -7 0 -5
-45 -9 -100 -11 -92 -3 -112 2 -92 22 4 5 45 6 92 2 47 -3 88 -6 93 -6z m340
-5 c-2 -5 -32 -11 -68 -13 -60 -3 -76 3 -58 22 11 11 128 2 126 -9z m1591 9
c37 -14 -3 -24 -100 -24 -95 0 -116 5 -97 23 8 9 176 9 197 1z m444 -11 c3
-10 -34 -13 -162 -13 -150 0 -187 5 -169 24 4 3 79 5 167 4 117 -2 160 -6 164
-15z m900 8 c27 -17 -53 -21 -379 -21 -297 0 -352 4 -332 24 10 9 696 7 711
-3z m200 0 c18 -11 -18 -21 -80 -21 -44 0 -65 10 -51 24 9 9 116 7 131 -3z
m-6690 -18 c-10 -2 -26 -2 -35 0 -10 3 -2 5 17 5 19 0 27 -2 18 -5z m1493
-139 c11 -14 10 -18 -5 -29 -22 -17 -46 -9 -46 14 0 34 28 42 51 15z m827 -12
c4 -28 -24 -41 -44 -20 -20 20 -7 50 20 46 13 -2 22 -12 24 -26z m237 -2 c0
-16 -6 -26 -18 -28 -19 -4 -32 20 -23 44 9 25 41 13 41 -16z m302 18 c12 -20
14 -46 3 -53 -15 -9 -50 14 -50 34 0 31 31 44 47 19z m243 -2 c0 -8 -4 -18
-10 -21 -5 -3 -10 3 -10 14 0 12 5 21 10 21 6 0 10 -6 10 -14z m1898 -12 c4
-27 -26 -40 -46 -20 -21 20 -8 48 20 44 14 -2 24 -11 26 -24z m457 -4 c0 -29
-32 -41 -41 -16 -9 24 4 48 23 44 12 -2 18 -12 18 -28z m762 14 c3 -8 -2 -23
-11 -32 -15 -15 -17 -15 -32 0 -21 21 -11 48 16 48 11 0 23 -7 27 -16z m-4401
-20 c1 -9 0 -13 -4 -10 -3 4 -7 14 -8 22 -1 9 0 13 4 10 3 -4 7 -14 8 -22z
m1077 -95 c-4 -4 -7 14 -7 42 2 67 7 74 11 15 2 -27 1 -52 -4 -57z m3050 64
c-7 -2 -19 -2 -25 0 -7 3 -2 5 12 5 14 0 19 -2 13 -5z m-5758 -141 c49 -133
59 -191 18 -102 -35 77 -83 208 -83 228 0 34 21 -7 65 -126z m557 76 c-16 -16
-37 4 -28 28 6 16 8 16 23 1 13 -13 15 -19 5 -29z m2115 -38 c-14 -47 -40 -64
-51 -33 -5 12 0 24 17 38 13 11 28 34 32 50 7 24 9 26 12 10 2 -11 -2 -40 -10
-65z m-1227 -15 c0 -67 -6 -95 -21 -95 -10 0 -13 153 -3 163 16 15 24 -9 24
-68z m1896 -16 c-20 -48 -31 -88 -26 -93 5 -5 5 -17 -1 -28 -12 -22 -44 -25
-35 -2 3 8 2 12 -4 9 -6 -3 -10 1 -10 9 0 8 5 18 11 21 6 4 29 45 51 91 23 46
43 83 44 81 2 -2 -12 -41 -30 -88z m-2415 -55 c-11 -43 -20 -70 -20 -59 -1 24
33 159 37 147 1 -4 -6 -44 -17 -88z m333 90 c20 -8 21 -28 2 -43 -18 -15 -46
-4 -46 18 0 29 14 37 44 25z m4921 -24 c0 -16 -6 -26 -18 -28 -19 -4 -32 20
-23 44 9 25 41 13 41 -16z m-5279 5 c9 -21 -15 -85 -32 -85 -19 0 -18 16 2 24
13 5 15 14 10 41 -7 35 9 51 20 20z m2827 -1 c11 -11 -5 -34 -24 -34 -12 0
-19 7 -19 20 0 19 28 28 43 14z m-3415 -28 c3 -12 -1 -17 -10 -14 -7 3 -15 13
-16 22 -3 12 1 17 10 14 7 -3 15 -13 16 -22z m4146 -61 c-8 -13 -13 -28 -10
-33 3 -6 -5 -12 -19 -14 -33 -7 -32 -1 7 39 38 39 44 42 22 8z m-554 -11 c15
-38 12 -54 -10 -54 -17 0 -20 7 -20 40 0 45 16 53 30 14z m-3291 -20 c25 -32
26 -52 6 -81 -35 -50 -115 -24 -115 39 0 62 72 90 109 42z m2256 -8 c9 4 15 0
15 -9 0 -25 -22 -32 -37 -12 -13 18 -13 18 -28 -1 -17 -23 -20 -5 -3 30 11 25
12 25 25 6 8 -11 20 -17 28 -14z m-2765 -6 c0 -25 -4 -30 -25 -30 -20 0 -25 5
-25 23 0 28 7 37 32 37 13 0 18 -8 18 -30z m260 13 c0 -20 -28 -27 -45 -13
-23 19 -18 27 15 27 19 0 30 -5 30 -14z m675 -13 c0 -16 -6 -26 -18 -28 -19
-4 -32 20 -23 44 9 25 41 13 41 -16z m1095 -7 c0 -20 -4 -24 -22 -21 -25 3
-37 36 -17 48 20 13 39 0 39 -27z m1585 6 c0 -17 -6 -24 -20 -24 -23 0 -33 34
-13 46 20 13 33 5 33 -22z m320 1 c0 -29 -32 -41 -41 -16 -9 24 4 48 23 44 12
-2 18 -12 18 -28z m1233 -2 c-2 -15 -11 -24 -25 -26 -19 -3 -23 1 -23 22 0 21
5 26 26 26 21 0 25 -4 22 -22z m1086 13 c10 -16 -5 -41 -24 -41 -23 0 -32 13
-24 34 7 17 39 22 48 7z m-3730 -26 c-4 -8 -10 -15 -15 -15 -4 0 -6 7 -3 15 4
8 10 15 15 15 4 0 6 -7 3 -15z m-2349 -29 c2 -13 6 -35 10 -48 5 -17 4 -20 -4
-12 -7 6 -14 31 -17 55 -3 24 -2 41 2 37 4 -4 8 -18 9 -32z m1160 2 c4 -19 3
-106 -4 -216 0 -13 -5 -20 -11 -17 -13 8 -13 255 0 255 5 0 12 -10 15 -22z
m2475 -110 c0 -21 -5 -28 -20 -28 -25 0 -37 25 -21 44 6 7 8 16 5 19 -3 3 -3
11 2 18 11 18 34 -18 34 -53z m1574 31 c12 -61 4 -139 -15 -139 -5 0 -9 38 -9
85 0 85 12 112 24 54z m-5274 -5 c0 -8 -4 -12 -10 -9 -5 3 -10 13 -10 21 0 8
5 12 10 9 6 -3 10 -13 10 -21z m3306 -10 c9 -34 -18 -64 -44 -48 -22 14 -27
41 -12 59 20 24 49 18 56 -11z m-1325 2 c-24 -13 -24 -14 18 -21 23 -4 41 -8
39 -10 -2 -1 -45 -6 -97 -10 -61 -4 -91 -3 -87 3 3 6 23 13 44 17 20 3 48 13
62 20 14 8 30 14 35 14 6 0 -1 -6 -14 -13z m-1341 -17 c151 0 302 -3 335 -7
40 -5 -71 -10 -325 -13 -212 -3 -387 -4 -389 -2 -14 11 64 34 89 26 8 -3 139
-5 290 -4z m4120 1 c0 -7 69 -9 205 -6 124 3 205 1 205 -5 0 -5 -83 -9 -204
-9 -111 0 -231 -3 -265 -6 -52 -6 -61 -4 -61 9 0 11 12 17 43 20 23 2 50 4 60
5 9 1 17 -3 17 -8z m-4510 -16 c0 -11 -5 -14 -16 -10 -9 3 -37 6 -62 6 -34 0
-43 3 -32 10 8 5 36 10 63 10 37 0 47 -4 47 -16z m2480 7 c0 -14 -40 -21 -125
-21 -87 0 -128 7 -119 21 7 12 244 12 244 0z m488 0 c16 -10 -313 -24 -368
-15 -22 4 -37 10 -34 15 7 11 385 12 402 0z m300 -3 c-6 -16 -50 -22 -96 -13
-50 9 -22 25 46 25 39 0 53 -4 50 -12z m1092 -3 c0 -12 -18 -15 -104 -15 -96
0 -126 7 -109 24 3 3 53 6 110 6 85 0 103 -3 103 -15z m-3087 -2 c-7 -2 -21
-2 -30 0 -10 3 -4 5 12 5 17 0 24 -2 18 -5z m2050 0 c-7 -2 -19 -2 -25 0 -7 3
-2 5 12 5 14 0 19 -2 13 -5z m2357 -55 c95 -48 104 -95 98 -479 -4 -261 -7
-278 -60 -325 -44 -40 -70 -48 -163 -48 -112 0 -165 24 -202 93 -23 43 -23 50
-23 342 0 187 4 308 11 326 28 75 99 112 214 113 64 0 90 -5 125 -22z m-5965
-35 c-7 -27 -18 -60 -24 -75 -19 -50 -19 -29 0 35 25 80 28 87 33 87 2 0 -2
-21 -9 -47z m84 -22 c1 -35 -5 -22 -12 24 -5 28 -4 34 3 20 5 -11 9 -31 9 -44z
m1171 -142 c0 -84 -4 -128 -10 -124 -17 11 -11 255 6 255 2 0 4 -59 4 -131z
m2465 85 c0 -28 -4 -39 -15 -39 -16 0 -26 45 -16 72 11 28 31 7 31 -33z
m-3796 27 c20 -13 -2 -64 -26 -59 -26 5 -39 34 -24 52 15 18 29 20 50 7z
m1206 -2 c8 -12 -23 -49 -41 -49 -25 0 -27 23 -4 42 25 21 36 22 45 7z m61 -4
c-11 -8 -22 -12 -25 -9 -6 6 19 24 34 24 6 -1 1 -7 -9 -15z m2132 -22 c-4 -52
-28 -56 -28 -4 0 30 4 41 16 41 11 0 14 -9 12 -37z m-2938 12 c10 -12 10 -18
0 -30 -25 -30 -61 -7 -46 30 3 8 12 15 19 15 8 0 20 -7 27 -15z m260 -9 c0
-25 -15 -36 -37 -29 -7 3 -13 16 -13 29 0 19 5 24 25 24 20 0 25 -5 25 -24z
m218 -2 c2 -13 -4 -24 -13 -28 -24 -9 -35 1 -35 30 0 21 4 25 23 22 13 -2 23
-11 25 -24z m1514 -168 c4 -255 1 -306 -19 -306 -14 0 -15 13 -9 92 3 50 6
162 6 250 0 94 4 158 10 158 5 0 10 -79 12 -194z m122 177 c4 -9 0 -23 -9 -32
-13 -14 -17 -14 -31 1 -9 9 -14 24 -11 32 8 21 43 20 51 -1z m433 1 c3 -8 -2
-23 -11 -32 -14 -15 -18 -15 -31 -1 -9 9 -13 23 -9 32 8 21 43 22 51 1z m238
-9 c0 -22 -31 -33 -47 -17 -17 17 -1 44 24 40 15 -2 23 -10 23 -23z m375 1 c0
-25 -15 -36 -37 -29 -7 3 -13 16 -13 29 0 19 5 24 25 24 20 0 25 -5 25 -24z
m314 8 c7 -19 -1 -34 -19 -34 -18 0 -28 17 -21 35 7 20 32 19 40 -1z m524 -10
c4 -26 -26 -40 -45 -21 -8 7 -11 21 -7 31 9 24 48 17 52 -10z m252 2 c0 -24
-23 -41 -41 -30 -5 3 -9 16 -9 30 0 19 5 24 25 24 20 0 25 -5 25 -24z m253 12
c7 -21 -4 -38 -23 -38 -23 0 -34 16 -26 35 7 18 43 20 49 3z m-3160 -40 c-6
-7 -18 -34 -28 -61 -10 -26 -20 -46 -22 -44 -5 6 25 88 38 104 14 17 25 17 12
1z m843 -56 c-17 -16 -18 -16 -5 5 7 12 15 20 18 17 3 -2 -3 -12 -13 -22z
m-776 -50 c0 -13 -3 -12 -16 4 -8 10 -13 14 -10 9 2 -6 1 -17 -5 -25 -6 -11
-9 -4 -9 24 0 38 0 39 20 21 11 -10 20 -25 20 -33z m1526 -36 c3 -19 3 -61 0
-93 -3 -32 -5 -89 -6 -126 0 -43 -4 -66 -10 -62 -13 8 -14 315 0 315 5 0 12
-15 16 -34z m-3086 4 c12 -8 12 -10 -3 -16 -22 -8 -50 3 -42 16 8 12 25 13 45
0z m274 4 c37 -14 -2 -24 -95 -24 -81 0 -99 3 -99 15 0 12 17 15 89 15 49 0
96 -3 105 -6z m2110 -4 c24 0 27 -3 16 -10 -8 -5 -57 -10 -107 -10 -80 0 -93
2 -93 16 0 15 10 16 77 10 42 -3 90 -6 107 -6z m566 -6 c0 -11 -448 -17 -470
-7 -28 13 62 19 268 17 111 -1 202 -6 202 -10z m1194 10 c28 -11 17 -24 -19
-24 -33 0 -43 8 -28 23 8 9 27 9 47 1z m-4087 -10 c-3 -3 -12 -4 -19 -1 -8 3
-5 6 6 6 11 1 17 -2 13 -5z m403 -4 c0 -6 -27 -10 -60 -10 -33 0 -60 4 -60 10
0 6 27 10 60 10 33 0 60 -4 60 -10z m128 3 c-16 -2 -40 -2 -55 0 -16 2 -3 4
27 4 30 0 43 -2 28 -4z m110 0 c-10 -2 -26 -2 -35 0 -10 3 -2 5 17 5 19 0 27
-2 18 -5z m90 0 c-10 -2 -28 -2 -40 0 -13 2 -5 4 17 4 22 1 32 -1 23 -4z
m3515 0 c-7 -2 -19 -2 -25 0 -7 3 -2 5 12 5 14 0 19 -2 13 -5z m-2801 -163 c5
0 7 4 3 9 -3 5 -1 12 4 15 23 15 20 -17 -3 -39 -14 -13 -26 -31 -26 -39 0 -8
-3 -17 -7 -19 -5 -3 -7 18 -5 46 l2 52 -15 -40 c-8 -22 -12 -48 -9 -57 6 -19
-3 -22 -30 -12 -14 5 -13 9 4 31 11 14 20 29 20 34 0 4 5 20 11 36 l11 28 15
-22 c9 -13 20 -23 25 -23z m-1680 -43 c-9 -31 -23 -57 -29 -57 -7 0 -13 2 -13
5 0 11 51 118 54 114 3 -2 -3 -30 -12 -62z m1208 6 c0 -23 5 -33 15 -33 8 0
15 -5 15 -11 0 -6 -7 -9 -15 -5 -11 4 -15 -1 -15 -19 0 -17 6 -25 18 -26 16
-1 16 -2 0 -6 -13 -3 -18 -15 -18 -43 0 -21 -3 -45 -6 -54 -11 -29 -24 -5 -24
45 l0 49 -77 2 -78 2 78 3 77 4 0 68 c0 37 3 71 7 74 11 11 23 -15 23 -50z
m1250 42 c0 -7 -6 -18 -13 -22 -8 -4 -16 -18 -19 -31 -4 -12 -2 -20 2 -17 17
11 22 -17 6 -33 -15 -15 -18 -15 -26 -2 -16 25 -11 60 13 90 25 32 37 37 37
15z m3660 -5 c11 -7 -1 -10 -40 -10 -39 0 -51 3 -40 10 8 5 26 10 40 10 14 0
32 -5 40 -10z m-4549 -27 c2 -27 -2 -47 -10 -55 -4 -5 -5 9 -3 30 l4 37 -26
-34 c-14 -19 -26 -46 -26 -59 0 -21 -2 -22 -15 -12 -21 17 -20 21 21 68 38 45
53 52 55 25z m-1284 -23 l3 -25 -11 25 -10 25 -25 -40 c-24 -38 -24 -38 -19
-10 11 52 14 56 37 53 16 -2 24 -11 25 -28z m3389 5 c8 -34 -3 -75 -21 -75
-11 0 -15 12 -15 43 0 24 3 47 7 50 13 13 23 7 29 -18z m-3156 -4 l-105 -16
-27 -50 c-25 -47 -56 -80 -66 -70 -3 2 5 13 18 23 13 10 31 39 40 63 17 43 19
44 76 55 33 7 84 12 114 12 46 0 39 -3 -50 -17z m1607 -28 c-3 -10 -5 -2 -5
17 0 19 2 27 5 18 2 -10 2 -26 0 -35z m-2262 17 c11 -17 -6 -50 -25 -50 -19 0
-36 33 -25 50 3 5 15 10 25 10 10 0 22 -5 25 -10z m85 -5 c-7 -8 -18 -15 -24
-15 -6 0 -2 7 8 15 25 19 32 19 16 0z m1408 -7 c3 -13 -3 -18 -21 -18 -29 0
-37 7 -30 27 8 19 47 12 51 -9z m535 15 c-23 -4 -33 -23 -13 -23 15 0 12 -21
-7 -42 -20 -22 -53 -24 -53 -3 0 8 5 15 10 15 6 0 10 -5 10 -12 0 -8 6 -6 17
4 13 14 14 20 4 32 -17 21 -5 36 27 35 24 -2 24 -2 5 -6z m985 -21 c4 -28 -24
-40 -45 -19 -14 13 -14 19 -3 32 18 22 44 15 48 -13z m222 -2 c5 0 11 6 13 13
4 7 6 6 6 -4 1 -26 -26 -44 -44 -29 -8 7 -15 18 -15 25 0 18 24 25 28 8 2 -7
7 -13 12 -13z m397 14 c3 -8 -1 -22 -9 -30 -12 -12 -17 -12 -33 0 -16 12 -17
16 -6 30 17 20 40 21 48 0z m313 -8 c0 -24 -23 -41 -41 -30 -5 3 -9 16 -9 30
0 19 5 24 25 24 20 0 25 -5 25 -24z m518 -4 c4 -28 -24 -41 -44 -20 -20 20 -7
50 20 46 13 -2 22 -12 24 -26z m710 4 c5 -24 -10 -38 -31 -30 -17 6 -23 35
-10 48 12 12 38 1 41 -18z m340 -2 c4 -26 -26 -40 -45 -21 -8 7 -11 21 -7 31
9 24 48 17 52 -10z m750 0 c4 -27 -26 -40 -46 -20 -21 20 -8 48 20 44 14 -2
24 -11 26 -24z m-6098 -17 c0 -5 -4 -5 -10 -2 -5 3 -10 14 -10 23 0 15 2 15
10 2 5 -8 10 -19 10 -23z m1038 16 c-60 -2 -156 -2 -215 0 -60 1 -11 3 107 3
118 0 167 -2 108 -3z m3728 -14 c3 -6 1 -16 -6 -22 -10 -9 -11 -9 -6 1 4 6 2
12 -3 12 -6 0 -11 5 -11 10 0 13 17 13 26 -1z m-26 -28 c0 -5 -9 -11 -21 -14
-16 -4 -18 -3 -8 9 13 16 29 19 29 5z m-3718 -114 c-7 -8 -7 -18 -2 -27 13
-20 12 -30 -2 -30 -6 0 -8 3 -5 7 4 3 2 12 -4 20 -9 10 -8 17 1 28 7 8 15 15
17 15 3 0 1 -6 -5 -13z m4328 -28 l12 -21 -204 7 c-111 4 -205 9 -207 11 -2 2
73 4 167 4 108 0 172 4 172 10 0 19 49 10 60 -11z m-5526 5 c24 -9 19 -24 -8
-24 -26 0 -40 12 -29 24 8 8 17 8 37 0z m356 -3 c40 -1 51 -4 40 -11 -19 -12
-167 -13 -175 -1 -6 10 26 18 60 15 11 -1 45 -2 75 -3z m155 0 c8 -14 -33 -24
-63 -15 l-27 7 25 7 c36 11 58 11 65 1z m2943 -8 c2 -9 -8 -13 -32 -13 -26 0
-36 4 -36 16 0 19 61 16 68 -3z m2826 8 c9 -14 -18 -31 -42 -24 -33 8 -28 33
7 33 17 0 32 -4 35 -9z m-5337 -12 c-12 -7 -43 -7 -95 -1 l-77 9 95 1 c70 1
90 -1 77 -9z m1011 6 c-11 -11 -396 -16 -403 -5 -4 7 62 10 201 10 114 0 205
-2 202 -5z m210 -6 c-12 -7 -24 -7 -35 0 -15 9 -12 10 17 10 29 0 32 -1 18
-10z m120 0 c-18 -7 -33 -7 -45 0 -14 8 -9 10 27 10 42 -1 43 -1 18 -10z m259
5 c-10 -10 -192 -14 -207 -4 -10 6 24 10 99 10 63 0 112 -3 108 -6z m1403 -4
c0 -6 -51 -10 -134 -10 -79 0 -137 4 -141 10 -4 6 43 10 134 10 87 0 141 -4
141 -10z"/>
<path d="M4189 3788 c-7 -24 -5 -38 4 -35 15 5 22 37 8 37 -6 0 -11 -1 -12 -2z"/>
<path d="M4250 2798 c-19 -13 -45 -39 -57 -57 -23 -34 -23 -35 -23 -427 l0
-394 50 0 c28 0 50 -4 50 -10 0 -5 -22 -10 -50 -10 l-50 0 0 -174 c0 -252 -10
-245 355 -246 258 0 279 5 322 69 23 34 23 37 23 377 l0 343 -22 4 -23 4 23 2
22 1 0 221 c0 243 -6 262 -45 144 -30 -94 -45 -129 -51 -123 -2 3 9 46 26 97
33 98 37 159 11 157 -9 -1 -15 5 -13 12 5 25 -49 31 -280 32 -229 1 -235 0
-268 -22z m0 -12 c0 -2 -8 -10 -17 -17 -16 -13 -17 -12 -4 4 13 16 21 21 21
13z m530 -15 c3 -1 -3 -6 -12 -12 -11 -6 -38 -7 -70 -2 l-53 8 45 5 c39 4 72
5 90 1z m-463 -7 c-3 -3 -12 -4 -19 -1 -8 3 -5 6 6 6 11 1 17 -2 13 -5z m440
-326 c-3 -8 -6 -5 -6 6 -1 11 2 17 5 13 3 -3 4 -12 1 -19z m-353 -235 c-14
-54 -30 -105 -35 -113 -16 -28 -10 21 10 85 10 33 24 80 31 105 7 25 15 40 17
33 2 -6 -8 -56 -23 -110z m113 75 c-3 -10 -16 -13 -41 -10 -45 5 -46 15 -3 28
35 11 53 3 44 -18z m78 -14 c-43 -34 -56 -29 -17 7 19 17 37 27 40 24 4 -4 -6
-18 -23 -31z m-95 -170 c0 -14 -21 -19 -33 -7 -9 9 13 34 24 27 5 -3 9 -12 9
-20z m-143 -126 c-3 -8 -6 -5 -6 6 -1 11 2 17 5 13 3 -3 4 -12 1 -19z m63 -59
c0 -5 -20 -9 -45 -9 -32 0 -45 4 -45 14 0 8 8 16 18 18 22 5 72 -11 72 -23z
m-51 -301 c1 -65 -2 -78 -15 -78 -14 0 -15 16 -11 138 3 75 7 139 8 142 4 10
17 -128 18 -202z m139 134 c4 -28 -24 -40 -45 -19 -14 13 -14 19 -3 32 18 22
44 15 48 -13z m-293 -172 c4 -6 12 -7 18 -4 8 5 9 4 2 -4 -12 -13 -58 -4 -49
9 7 12 21 11 29 -1z"/>
<path d="M2190 2810 l-95 -29 102 2 103 2 0 28 c0 15 -3 27 -7 26 -5 0 -51
-14 -103 -29z"/>
<path d="M1016 1935 c-6 -17 2 -45 14 -45 15 0 32 30 26 45 -7 19 -32 19 -40
0z"/>
<path d="M1010 1130 c-24 -24 -26 -53 -4 -74 35 -36 78 -9 72 45 -4 42 -40 57
-68 29z m24 -37 c-7 -52 -14 -54 -14 -5 0 23 4 42 9 42 5 0 7 -17 5 -37z"/>
<path d="M6363 860 c-65 -39 -64 -35 -61 -381 3 -356 3 -353 85 -385 58 -23
183 -15 221 13 61 44 63 58 60 388 -3 334 -4 337 -73 369 -50 24 -190 22 -232
-4z m160 -74 c-27 -23 -28 -28 -31 -130 -3 -83 -7 -106 -18 -106 -11 0 -14 22
-14 109 0 106 1 110 26 130 15 12 35 21 46 21 16 0 15 -3 -9 -24z"/>
<path d="M1730 790 c0 -5 5 -10 10 -10 6 0 10 5 10 10 0 6 -4 10 -10 10 -5 0
-10 -4 -10 -10z"/>
<path d="M4157 383 c-12 -11 -8 -19 12 -20 14 -1 18 3 14 13 -6 15 -16 18 -26
7z"/>
</g>
</svg>
